<?xml version="1.0" encoding="UTF-8" ?>
<svg version="1.1" width="64" height="64" xmlns="http://www.w3.org/2000/svg" shape-rendering="crispEdges">
<rect x="22" y="36" width="1" height="1" fill="#000000" />
<rect x="23" y="36" width="1" height="1" fill="#000000" />
<rect x="24" y="36" width="1" height="1" fill="#000000" />
<rect x="25" y="36" width="1" height="1" fill="#000000" />
<rect x="26" y="36" width="1" height="1" fill="#000000" />
<rect x="27" y="36" width="1" height="1" fill="#000000" />
<rect x="28" y="36" width="1" height="1" fill="#000000" />
<rect x="29" y="36" width="1" height="1" fill="#000000" />
<rect x="30" y="36" width="1" height="1" fill="#000000" />
<rect x="31" y="36" width="1" height="1" fill="#000000" />
<rect x="32" y="36" width="1" height="1" fill="#000000" />
<rect x="33" y="36" width="1" height="1" fill="#000000" />
<rect x="34" y="36" width="1" height="1" fill="#000000" />
<rect x="35" y="36" width="1" height="1" fill="#000000" />
<rect x="36" y="36" width="1" height="1" fill="#000000" />
<rect x="37" y="36" width="1" height="1" fill="#000000" />
<rect x="38" y="36" width="1" height="1" fill="#000000" />
<rect x="39" y="36" width="1" height="1" fill="#000000" />
<rect x="40" y="36" width="1" height="1" fill="#000000" />
<rect x="41" y="36" width="1" height="1" fill="#000000" />
<rect x="42" y="36" width="1" height="1" fill="#000000" />
<rect x="16" y="37" width="1" height="1" fill="#000000" />
<rect x="17" y="37" width="1" height="1" fill="#000000" />
<rect x="18" y="37" width="1" height="1" fill="#000000" />
<rect x="19" y="37" width="1" height="1" fill="#000000" />
<rect x="20" y="37" width="1" height="1" fill="#000000" />
<rect x="21" y="37" width="1" height="1" fill="#000000" />
<rect x="22" y="37" width="1" height="1" fill="#3003D9" />
<rect x="23" y="37" width="1" height="1" fill="#3003D9" />
<rect x="24" y="37" width="1" height="1" fill="#3003D9" />
<rect x="25" y="37" width="1" height="1" fill="#3003D9" />
<rect x="26" y="37" width="1" height="1" fill="#3003D9" />
<rect x="27" y="37" width="1" height="1" fill="#3003D9" />
<rect x="28" y="37" width="1" height="1" fill="#3003D9" />
<rect x="29" y="37" width="1" height="1" fill="#3003D9" />
<rect x="30" y="37" width="1" height="1" fill="#3003D9" />
<rect x="31" y="37" width="1" height="1" fill="#3003D9" />
<rect x="32" y="37" width="1" height="1" fill="#3003D9" />
<rect x="33" y="37" width="1" height="1" fill="#3003D9" />
<rect x="34" y="37" width="1" height="1" fill="#3003D9" />
<rect x="35" y="37" width="1" height="1" fill="#3003D9" />
<rect x="36" y="37" width="1" height="1" fill="#3003D9" />
<rect x="37" y="37" width="1" height="1" fill="#3003D9" />
<rect x="38" y="37" width="1" height="1" fill="#3003D9" />
<rect x="39" y="37" width="1" height="1" fill="#3003D9" />
<rect x="40" y="37" width="1" height="1" fill="#3003D9" />
<rect x="41" y="37" width="1" height="1" fill="#3003D9" />
<rect x="42" y="37" width="1" height="1" fill="#3003D9" />
<rect x="43" y="37" width="1" height="1" fill="#000000" />
<rect x="44" y="37" width="1" height="1" fill="#000000" />
<rect x="45" y="37" width="1" height="1" fill="#000000" />
<rect x="46" y="37" width="1" height="1" fill="#000000" />
<rect x="47" y="37" width="1" height="1" fill="#000000" />
<rect x="48" y="37" width="1" height="1" fill="#000000" />
<rect x="12" y="38" width="1" height="1" fill="#000000" />
<rect x="13" y="38" width="1" height="1" fill="#000000" />
<rect x="14" y="38" width="1" height="1" fill="#000000" />
<rect x="15" y="38" width="1" height="1" fill="#000000" />
<rect x="16" y="38" width="1" height="1" fill="#3003D9" />
<rect x="17" y="38" width="1" height="1" fill="#3003D9" />
<rect x="18" y="38" width="1" height="1" fill="#3003D9" />
<rect x="19" y="38" width="1" height="1" fill="#3003D9" />
<rect x="20" y="38" width="1" height="1" fill="#3003D9" />
<rect x="21" y="38" width="1" height="1" fill="#3003D9" />
<rect x="22" y="38" width="1" height="1" fill="#3003D9" />
<rect x="23" y="38" width="1" height="1" fill="#3003D9" />
<rect x="24" y="38" width="1" height="1" fill="#3003D9" />
<rect x="25" y="38" width="1" height="1" fill="#3003D9" />
<rect x="26" y="38" width="1" height="1" fill="#3003D9" />
<rect x="27" y="38" width="1" height="1" fill="#3003D9" />
<rect x="28" y="38" width="1" height="1" fill="#3003D9" />
<rect x="29" y="38" width="1" height="1" fill="#3003D9" />
<rect x="30" y="38" width="1" height="1" fill="#3003D9" />
<rect x="31" y="38" width="1" height="1" fill="#3003D9" />
<rect x="32" y="38" width="1" height="1" fill="#3003D9" />
<rect x="33" y="38" width="1" height="1" fill="#3003D9" />
<rect x="34" y="38" width="1" height="1" fill="#3003D9" />
<rect x="35" y="38" width="1" height="1" fill="#3003D9" />
<rect x="36" y="38" width="1" height="1" fill="#3003D9" />
<rect x="37" y="38" width="1" height="1" fill="#3003D9" />
<rect x="38" y="38" width="1" height="1" fill="#3003D9" />
<rect x="39" y="38" width="1" height="1" fill="#3003D9" />
<rect x="40" y="38" width="1" height="1" fill="#3003D9" />
<rect x="41" y="38" width="1" height="1" fill="#3003D9" />
<rect x="42" y="38" width="1" height="1" fill="#3003D9" />
<rect x="43" y="38" width="1" height="1" fill="#3003D9" />
<rect x="44" y="38" width="1" height="1" fill="#3003D9" />
<rect x="45" y="38" width="1" height="1" fill="#3003D9" />
<rect x="46" y="38" width="1" height="1" fill="#3003D9" />
<rect x="47" y="38" width="1" height="1" fill="#3003D9" />
<rect x="48" y="38" width="1" height="1" fill="#3003D9" />
<rect x="49" y="38" width="1" height="1" fill="#000000" />
<rect x="50" y="38" width="1" height="1" fill="#000000" />
<rect x="51" y="38" width="1" height="1" fill="#000000" />
<rect x="52" y="38" width="1" height="1" fill="#000000" />
<rect x="10" y="39" width="1" height="1" fill="#000000" />
<rect x="11" y="39" width="1" height="1" fill="#000000" />
<rect x="12" y="39" width="1" height="1" fill="#3003D9" />
<rect x="13" y="39" width="1" height="1" fill="#3003D9" />
<rect x="14" y="39" width="1" height="1" fill="#3003D9" />
<rect x="15" y="39" width="1" height="1" fill="#3003D9" />
<rect x="16" y="39" width="1" height="1" fill="#3003D9" />
<rect x="17" y="39" width="1" height="1" fill="#3003D9" />
<rect x="18" y="39" width="1" height="1" fill="#3003D9" />
<rect x="19" y="39" width="1" height="1" fill="#3003D9" />
<rect x="20" y="39" width="1" height="1" fill="#3003D9" />
<rect x="21" y="39" width="1" height="1" fill="#3003D9" />
<rect x="22" y="39" width="1" height="1" fill="#3003D9" />
<rect x="23" y="39" width="1" height="1" fill="#3003D9" />
<rect x="24" y="39" width="1" height="1" fill="#3003D9" />
<rect x="25" y="39" width="1" height="1" fill="#3003D9" />
<rect x="26" y="39" width="1" height="1" fill="#3003D9" />
<rect x="27" y="39" width="1" height="1" fill="#3003D9" />
<rect x="28" y="39" width="1" height="1" fill="#3003D9" />
<rect x="29" y="39" width="1" height="1" fill="#3003D9" />
<rect x="30" y="39" width="1" height="1" fill="#3003D9" />
<rect x="31" y="39" width="1" height="1" fill="#3003D9" />
<rect x="32" y="39" width="1" height="1" fill="#3003D9" />
<rect x="33" y="39" width="1" height="1" fill="#3003D9" />
<rect x="34" y="39" width="1" height="1" fill="#3003D9" />
<rect x="35" y="39" width="1" height="1" fill="#3003D9" />
<rect x="36" y="39" width="1" height="1" fill="#3003D9" />
<rect x="37" y="39" width="1" height="1" fill="#3003D9" />
<rect x="38" y="39" width="1" height="1" fill="#3003D9" />
<rect x="39" y="39" width="1" height="1" fill="#3003D9" />
<rect x="40" y="39" width="1" height="1" fill="#3003D9" />
<rect x="41" y="39" width="1" height="1" fill="#3003D9" />
<rect x="42" y="39" width="1" height="1" fill="#3003D9" />
<rect x="43" y="39" width="1" height="1" fill="#3003D9" />
<rect x="44" y="39" width="1" height="1" fill="#3003D9" />
<rect x="45" y="39" width="1" height="1" fill="#3003D9" />
<rect x="46" y="39" width="1" height="1" fill="#3003D9" />
<rect x="47" y="39" width="1" height="1" fill="#3003D9" />
<rect x="48" y="39" width="1" height="1" fill="#3003D9" />
<rect x="49" y="39" width="1" height="1" fill="#3003D9" />
<rect x="50" y="39" width="1" height="1" fill="#3003D9" />
<rect x="51" y="39" width="1" height="1" fill="#3003D9" />
<rect x="52" y="39" width="1" height="1" fill="#3003D9" />
<rect x="53" y="39" width="1" height="1" fill="#000000" />
<rect x="54" y="39" width="1" height="1" fill="#000000" />
<rect x="8" y="40" width="1" height="1" fill="#000000" />
<rect x="9" y="40" width="1" height="1" fill="#000000" />
<rect x="10" y="40" width="1" height="1" fill="#3003D9" />
<rect x="11" y="40" width="1" height="1" fill="#3003D9" />
<rect x="12" y="40" width="1" height="1" fill="#3003D9" />
<rect x="13" y="40" width="1" height="1" fill="#3003D9" />
<rect x="14" y="40" width="1" height="1" fill="#3003D9" />
<rect x="15" y="40" width="1" height="1" fill="#3003D9" />
<rect x="16" y="40" width="1" height="1" fill="#3003D9" />
<rect x="17" y="40" width="1" height="1" fill="#3003D9" />
<rect x="18" y="40" width="1" height="1" fill="#3003D9" />
<rect x="19" y="40" width="1" height="1" fill="#3003D9" />
<rect x="20" y="40" width="1" height="1" fill="#3003D9" />
<rect x="21" y="40" width="1" height="1" fill="#3003D9" />
<rect x="22" y="40" width="1" height="1" fill="#3003D9" />
<rect x="23" y="40" width="1" height="1" fill="#3003D9" />
<rect x="24" y="40" width="1" height="1" fill="#3003D9" />
<rect x="25" y="40" width="1" height="1" fill="#3003D9" />
<rect x="26" y="40" width="1" height="1" fill="#3003D9" />
<rect x="27" y="40" width="1" height="1" fill="#3003D9" />
<rect x="28" y="40" width="1" height="1" fill="#3003D9" />
<rect x="29" y="40" width="1" height="1" fill="#3003D9" />
<rect x="30" y="40" width="1" height="1" fill="#3003D9" />
<rect x="31" y="40" width="1" height="1" fill="#3003D9" />
<rect x="32" y="40" width="1" height="1" fill="#3003D9" />
<rect x="33" y="40" width="1" height="1" fill="#3003D9" />
<rect x="34" y="40" width="1" height="1" fill="#3003D9" />
<rect x="35" y="40" width="1" height="1" fill="#3003D9" />
<rect x="36" y="40" width="1" height="1" fill="#3003D9" />
<rect x="37" y="40" width="1" height="1" fill="#3003D9" />
<rect x="38" y="40" width="1" height="1" fill="#3003D9" />
<rect x="39" y="40" width="1" height="1" fill="#3003D9" />
<rect x="40" y="40" width="1" height="1" fill="#3003D9" />
<rect x="41" y="40" width="1" height="1" fill="#3003D9" />
<rect x="42" y="40" width="1" height="1" fill="#3003D9" />
<rect x="43" y="40" width="1" height="1" fill="#3003D9" />
<rect x="44" y="40" width="1" height="1" fill="#3003D9" />
<rect x="45" y="40" width="1" height="1" fill="#3003D9" />
<rect x="46" y="40" width="1" height="1" fill="#3003D9" />
<rect x="47" y="40" width="1" height="1" fill="#3003D9" />
<rect x="48" y="40" width="1" height="1" fill="#3003D9" />
<rect x="49" y="40" width="1" height="1" fill="#3003D9" />
<rect x="50" y="40" width="1" height="1" fill="#3003D9" />
<rect x="51" y="40" width="1" height="1" fill="#3003D9" />
<rect x="52" y="40" width="1" height="1" fill="#3003D9" />
<rect x="53" y="40" width="1" height="1" fill="#3003D9" />
<rect x="54" y="40" width="1" height="1" fill="#3003D9" />
<rect x="55" y="40" width="1" height="1" fill="#000000" />
<rect x="56" y="40" width="1" height="1" fill="#000000" />
<rect x="6" y="41" width="1" height="1" fill="#000000" />
<rect x="7" y="41" width="1" height="1" fill="#000000" />
<rect x="8" y="41" width="1" height="1" fill="#000000" />
<rect x="9" y="41" width="1" height="1" fill="#3003D9" />
<rect x="10" y="41" width="1" height="1" fill="#3003D9" />
<rect x="11" y="41" width="1" height="1" fill="#3003D9" />
<rect x="12" y="41" width="1" height="1" fill="#3003D9" />
<rect x="13" y="41" width="1" height="1" fill="#3003D9" />
<rect x="14" y="41" width="1" height="1" fill="#3003D9" />
<rect x="15" y="41" width="1" height="1" fill="#3003D9" />
<rect x="16" y="41" width="1" height="1" fill="#3003D9" />
<rect x="17" y="41" width="1" height="1" fill="#3003D9" />
<rect x="18" y="41" width="1" height="1" fill="#3003D9" />
<rect x="19" y="41" width="1" height="1" fill="#3003D9" />
<rect x="20" y="41" width="1" height="1" fill="#3003D9" />
<rect x="21" y="41" width="1" height="1" fill="#3003D9" />
<rect x="22" y="41" width="1" height="1" fill="#3003D9" />
<rect x="23" y="41" width="1" height="1" fill="#3003D9" />
<rect x="24" y="41" width="1" height="1" fill="#3003D9" />
<rect x="25" y="41" width="1" height="1" fill="#3003D9" />
<rect x="26" y="41" width="1" height="1" fill="#3003D9" />
<rect x="27" y="41" width="1" height="1" fill="#3003D9" />
<rect x="28" y="41" width="1" height="1" fill="#3003D9" />
<rect x="29" y="41" width="1" height="1" fill="#3003D9" />
<rect x="30" y="41" width="1" height="1" fill="#3003D9" />
<rect x="31" y="41" width="1" height="1" fill="#3003D9" />
<rect x="32" y="41" width="1" height="1" fill="#3003D9" />
<rect x="33" y="41" width="1" height="1" fill="#3003D9" />
<rect x="34" y="41" width="1" height="1" fill="#3003D9" />
<rect x="35" y="41" width="1" height="1" fill="#3003D9" />
<rect x="36" y="41" width="1" height="1" fill="#3003D9" />
<rect x="37" y="41" width="1" height="1" fill="#3003D9" />
<rect x="38" y="41" width="1" height="1" fill="#3003D9" />
<rect x="39" y="41" width="1" height="1" fill="#3003D9" />
<rect x="40" y="41" width="1" height="1" fill="#3003D9" />
<rect x="41" y="41" width="1" height="1" fill="#3003D9" />
<rect x="42" y="41" width="1" height="1" fill="#3003D9" />
<rect x="43" y="41" width="1" height="1" fill="#3003D9" />
<rect x="44" y="41" width="1" height="1" fill="#3003D9" />
<rect x="45" y="41" width="1" height="1" fill="#3003D9" />
<rect x="46" y="41" width="1" height="1" fill="#3003D9" />
<rect x="47" y="41" width="1" height="1" fill="#3003D9" />
<rect x="48" y="41" width="1" height="1" fill="#3003D9" />
<rect x="49" y="41" width="1" height="1" fill="#3003D9" />
<rect x="50" y="41" width="1" height="1" fill="#3003D9" />
<rect x="51" y="41" width="1" height="1" fill="#3003D9" />
<rect x="52" y="41" width="1" height="1" fill="#3003D9" />
<rect x="53" y="41" width="1" height="1" fill="#3003D9" />
<rect x="54" y="41" width="1" height="1" fill="#3003D9" />
<rect x="55" y="41" width="1" height="1" fill="#3003D9" />
<rect x="56" y="41" width="1" height="1" fill="#000000" />
<rect x="57" y="41" width="1" height="1" fill="#000000" />
<rect x="58" y="41" width="1" height="1" fill="#000000" />
<rect x="5" y="42" width="1" height="1" fill="#000000" />
<rect x="6" y="42" width="1" height="1" fill="#000000" opacity="0.556863" />
<rect x="7" y="42" width="1" height="1" fill="#000000" />
<rect x="8" y="42" width="1" height="1" fill="#0C0293" />
<rect x="9" y="42" width="1" height="1" fill="#000000" />
<rect x="10" y="42" width="1" height="1" fill="#3003D9" />
<rect x="11" y="42" width="1" height="1" fill="#3003D9" />
<rect x="12" y="42" width="1" height="1" fill="#3003D9" />
<rect x="13" y="42" width="1" height="1" fill="#3003D9" />
<rect x="14" y="42" width="1" height="1" fill="#3003D9" />
<rect x="15" y="42" width="1" height="1" fill="#3003D9" />
<rect x="16" y="42" width="1" height="1" fill="#3003D9" />
<rect x="17" y="42" width="1" height="1" fill="#3003D9" />
<rect x="18" y="42" width="1" height="1" fill="#3003D9" />
<rect x="19" y="42" width="1" height="1" fill="#3003D9" />
<rect x="20" y="42" width="1" height="1" fill="#3003D9" />
<rect x="21" y="42" width="1" height="1" fill="#3003D9" />
<rect x="22" y="42" width="1" height="1" fill="#3003D9" />
<rect x="23" y="42" width="1" height="1" fill="#3003D9" />
<rect x="24" y="42" width="1" height="1" fill="#3003D9" />
<rect x="25" y="42" width="1" height="1" fill="#3003D9" />
<rect x="26" y="42" width="1" height="1" fill="#3003D9" />
<rect x="27" y="42" width="1" height="1" fill="#3003D9" />
<rect x="28" y="42" width="1" height="1" fill="#3003D9" />
<rect x="29" y="42" width="1" height="1" fill="#3003D9" />
<rect x="30" y="42" width="1" height="1" fill="#3003D9" />
<rect x="31" y="42" width="1" height="1" fill="#3003D9" />
<rect x="32" y="42" width="1" height="1" fill="#3003D9" />
<rect x="33" y="42" width="1" height="1" fill="#3003D9" />
<rect x="34" y="42" width="1" height="1" fill="#3003D9" />
<rect x="35" y="42" width="1" height="1" fill="#3003D9" />
<rect x="36" y="42" width="1" height="1" fill="#3003D9" />
<rect x="37" y="42" width="1" height="1" fill="#3003D9" />
<rect x="38" y="42" width="1" height="1" fill="#3003D9" />
<rect x="39" y="42" width="1" height="1" fill="#3003D9" />
<rect x="40" y="42" width="1" height="1" fill="#3003D9" />
<rect x="41" y="42" width="1" height="1" fill="#3003D9" />
<rect x="42" y="42" width="1" height="1" fill="#3003D9" />
<rect x="43" y="42" width="1" height="1" fill="#3003D9" />
<rect x="44" y="42" width="1" height="1" fill="#3003D9" />
<rect x="45" y="42" width="1" height="1" fill="#3003D9" />
<rect x="46" y="42" width="1" height="1" fill="#3003D9" />
<rect x="47" y="42" width="1" height="1" fill="#3003D9" />
<rect x="48" y="42" width="1" height="1" fill="#3003D9" />
<rect x="49" y="42" width="1" height="1" fill="#3003D9" />
<rect x="50" y="42" width="1" height="1" fill="#3003D9" />
<rect x="51" y="42" width="1" height="1" fill="#3003D9" />
<rect x="52" y="42" width="1" height="1" fill="#3003D9" />
<rect x="53" y="42" width="1" height="1" fill="#3003D9" />
<rect x="54" y="42" width="1" height="1" fill="#3003D9" />
<rect x="55" y="42" width="1" height="1" fill="#000000" />
<rect x="56" y="42" width="1" height="1" fill="#0C0293" />
<rect x="57" y="42" width="1" height="1" fill="#000000" />
<rect x="58" y="42" width="1" height="1" fill="#000000" opacity="0.556863" />
<rect x="59" y="42" width="1" height="1" fill="#000000" />
<rect x="5" y="43" width="1" height="1" fill="#000000" />
<rect x="6" y="43" width="1" height="1" fill="#000000" opacity="0.556863" />
<rect x="7" y="43" width="1" height="1" fill="#000000" />
<rect x="8" y="43" width="1" height="1" fill="#0C0293" />
<rect x="9" y="43" width="1" height="1" fill="#0C0293" />
<rect x="10" y="43" width="1" height="1" fill="#000000" />
<rect x="11" y="43" width="1" height="1" fill="#000000" />
<rect x="12" y="43" width="1" height="1" fill="#3003D9" />
<rect x="13" y="43" width="1" height="1" fill="#3003D9" />
<rect x="14" y="43" width="1" height="1" fill="#3003D9" />
<rect x="15" y="43" width="1" height="1" fill="#3003D9" />
<rect x="16" y="43" width="1" height="1" fill="#3003D9" />
<rect x="17" y="43" width="1" height="1" fill="#3003D9" />
<rect x="18" y="43" width="1" height="1" fill="#3003D9" />
<rect x="19" y="43" width="1" height="1" fill="#3003D9" />
<rect x="20" y="43" width="1" height="1" fill="#3003D9" />
<rect x="21" y="43" width="1" height="1" fill="#3003D9" />
<rect x="22" y="43" width="1" height="1" fill="#3003D9" />
<rect x="23" y="43" width="1" height="1" fill="#3003D9" />
<rect x="24" y="43" width="1" height="1" fill="#3003D9" />
<rect x="25" y="43" width="1" height="1" fill="#3003D9" />
<rect x="26" y="43" width="1" height="1" fill="#3003D9" />
<rect x="27" y="43" width="1" height="1" fill="#3003D9" />
<rect x="28" y="43" width="1" height="1" fill="#3003D9" />
<rect x="29" y="43" width="1" height="1" fill="#3003D9" />
<rect x="30" y="43" width="1" height="1" fill="#3003D9" />
<rect x="31" y="43" width="1" height="1" fill="#3003D9" />
<rect x="32" y="43" width="1" height="1" fill="#3003D9" />
<rect x="33" y="43" width="1" height="1" fill="#3003D9" />
<rect x="34" y="43" width="1" height="1" fill="#3003D9" />
<rect x="35" y="43" width="1" height="1" fill="#3003D9" />
<rect x="36" y="43" width="1" height="1" fill="#3003D9" />
<rect x="37" y="43" width="1" height="1" fill="#3003D9" />
<rect x="38" y="43" width="1" height="1" fill="#3003D9" />
<rect x="39" y="43" width="1" height="1" fill="#3003D9" />
<rect x="40" y="43" width="1" height="1" fill="#3003D9" />
<rect x="41" y="43" width="1" height="1" fill="#3003D9" />
<rect x="42" y="43" width="1" height="1" fill="#3003D9" />
<rect x="43" y="43" width="1" height="1" fill="#3003D9" />
<rect x="44" y="43" width="1" height="1" fill="#3003D9" />
<rect x="45" y="43" width="1" height="1" fill="#3003D9" />
<rect x="46" y="43" width="1" height="1" fill="#3003D9" />
<rect x="47" y="43" width="1" height="1" fill="#3003D9" />
<rect x="48" y="43" width="1" height="1" fill="#3003D9" />
<rect x="49" y="43" width="1" height="1" fill="#3003D9" />
<rect x="50" y="43" width="1" height="1" fill="#3003D9" />
<rect x="51" y="43" width="1" height="1" fill="#3003D9" />
<rect x="52" y="43" width="1" height="1" fill="#3003D9" />
<rect x="53" y="43" width="1" height="1" fill="#000000" />
<rect x="54" y="43" width="1" height="1" fill="#000000" />
<rect x="55" y="43" width="1" height="1" fill="#0C0293" />
<rect x="56" y="43" width="1" height="1" fill="#0C0293" />
<rect x="57" y="43" width="1" height="1" fill="#000000" />
<rect x="58" y="43" width="1" height="1" fill="#000000" opacity="0.556863" />
<rect x="59" y="43" width="1" height="1" fill="#000000" />
<rect x="4" y="44" width="1" height="1" fill="#000000" />
<rect x="5" y="44" width="1" height="1" fill="#000000" opacity="0.556863" />
<rect x="6" y="44" width="1" height="1" fill="#000000" opacity="0.556863" />
<rect x="7" y="44" width="1" height="1" fill="#000000" />
<rect x="8" y="44" width="1" height="1" fill="#0C0293" />
<rect x="9" y="44" width="1" height="1" fill="#0C0293" />
<rect x="10" y="44" width="1" height="1" fill="#0C0293" />
<rect x="11" y="44" width="1" height="1" fill="#0C0293" />
<rect x="12" y="44" width="1" height="1" fill="#000000" />
<rect x="13" y="44" width="1" height="1" fill="#000000" />
<rect x="14" y="44" width="1" height="1" fill="#000000" />
<rect x="15" y="44" width="1" height="1" fill="#000000" />
<rect x="16" y="44" width="1" height="1" fill="#3003D9" />
<rect x="17" y="44" width="1" height="1" fill="#3003D9" />
<rect x="18" y="44" width="1" height="1" fill="#3003D9" />
<rect x="19" y="44" width="1" height="1" fill="#3003D9" />
<rect x="20" y="44" width="1" height="1" fill="#3003D9" />
<rect x="21" y="44" width="1" height="1" fill="#3003D9" />
<rect x="22" y="44" width="1" height="1" fill="#3003D9" />
<rect x="23" y="44" width="1" height="1" fill="#3003D9" />
<rect x="24" y="44" width="1" height="1" fill="#3003D9" />
<rect x="25" y="44" width="1" height="1" fill="#3003D9" />
<rect x="26" y="44" width="1" height="1" fill="#3003D9" />
<rect x="27" y="44" width="1" height="1" fill="#3003D9" />
<rect x="28" y="44" width="1" height="1" fill="#3003D9" />
<rect x="29" y="44" width="1" height="1" fill="#3003D9" />
<rect x="30" y="44" width="1" height="1" fill="#3003D9" />
<rect x="31" y="44" width="1" height="1" fill="#3003D9" />
<rect x="32" y="44" width="1" height="1" fill="#3003D9" />
<rect x="33" y="44" width="1" height="1" fill="#3003D9" />
<rect x="34" y="44" width="1" height="1" fill="#3003D9" />
<rect x="35" y="44" width="1" height="1" fill="#3003D9" />
<rect x="36" y="44" width="1" height="1" fill="#3003D9" />
<rect x="37" y="44" width="1" height="1" fill="#3003D9" />
<rect x="38" y="44" width="1" height="1" fill="#3003D9" />
<rect x="39" y="44" width="1" height="1" fill="#3003D9" />
<rect x="40" y="44" width="1" height="1" fill="#3003D9" />
<rect x="41" y="44" width="1" height="1" fill="#3003D9" />
<rect x="42" y="44" width="1" height="1" fill="#3003D9" />
<rect x="43" y="44" width="1" height="1" fill="#3003D9" />
<rect x="44" y="44" width="1" height="1" fill="#3003D9" />
<rect x="45" y="44" width="1" height="1" fill="#3003D9" />
<rect x="46" y="44" width="1" height="1" fill="#3003D9" />
<rect x="47" y="44" width="1" height="1" fill="#3003D9" />
<rect x="48" y="44" width="1" height="1" fill="#3003D9" />
<rect x="49" y="44" width="1" height="1" fill="#000000" />
<rect x="50" y="44" width="1" height="1" fill="#000000" />
<rect x="51" y="44" width="1" height="1" fill="#000000" />
<rect x="52" y="44" width="1" height="1" fill="#000000" />
<rect x="53" y="44" width="1" height="1" fill="#0C0293" />
<rect x="54" y="44" width="1" height="1" fill="#0C0293" />
<rect x="55" y="44" width="1" height="1" fill="#0C0293" />
<rect x="56" y="44" width="1" height="1" fill="#0C0293" />
<rect x="57" y="44" width="1" height="1" fill="#000000" />
<rect x="58" y="44" width="1" height="1" fill="#000000" opacity="0.556863" />
<rect x="59" y="44" width="1" height="1" fill="#000000" opacity="0.556863" />
<rect x="60" y="44" width="1" height="1" fill="#000000" />
<rect x="4" y="45" width="1" height="1" fill="#000000" />
<rect x="5" y="45" width="1" height="1" fill="#000000" opacity="0.556863" />
<rect x="6" y="45" width="1" height="1" fill="#000000" opacity="0.556863" />
<rect x="7" y="45" width="1" height="1" fill="#000000" opacity="0.556863" />
<rect x="8" y="45" width="1" height="1" fill="#000000" />
<rect x="9" y="45" width="1" height="1" fill="#000000" />
<rect x="10" y="45" width="1" height="1" fill="#0C0293" />
<rect x="11" y="45" width="1" height="1" fill="#0C0293" />
<rect x="12" y="45" width="1" height="1" fill="#0C0293" />
<rect x="13" y="45" width="1" height="1" fill="#0C0293" />
<rect x="14" y="45" width="1" height="1" fill="#0C0293" />
<rect x="15" y="45" width="1" height="1" fill="#0C0293" />
<rect x="16" y="45" width="1" height="1" fill="#000000" />
<rect x="17" y="45" width="1" height="1" fill="#000000" />
<rect x="18" y="45" width="1" height="1" fill="#000000" />
<rect x="19" y="45" width="1" height="1" fill="#000000" />
<rect x="20" y="45" width="1" height="1" fill="#000000" />
<rect x="21" y="45" width="1" height="1" fill="#000000" />
<rect x="22" y="45" width="1" height="1" fill="#3003D9" />
<rect x="23" y="45" width="1" height="1" fill="#3003D9" />
<rect x="24" y="45" width="1" height="1" fill="#3003D9" />
<rect x="25" y="45" width="1" height="1" fill="#3003D9" />
<rect x="26" y="45" width="1" height="1" fill="#3003D9" />
<rect x="27" y="45" width="1" height="1" fill="#3003D9" />
<rect x="28" y="45" width="1" height="1" fill="#3003D9" />
<rect x="29" y="45" width="1" height="1" fill="#3003D9" />
<rect x="30" y="45" width="1" height="1" fill="#3003D9" />
<rect x="31" y="45" width="1" height="1" fill="#3003D9" />
<rect x="32" y="45" width="1" height="1" fill="#3003D9" />
<rect x="33" y="45" width="1" height="1" fill="#3003D9" />
<rect x="34" y="45" width="1" height="1" fill="#3003D9" />
<rect x="35" y="45" width="1" height="1" fill="#3003D9" />
<rect x="36" y="45" width="1" height="1" fill="#3003D9" />
<rect x="37" y="45" width="1" height="1" fill="#3003D9" />
<rect x="38" y="45" width="1" height="1" fill="#3003D9" />
<rect x="39" y="45" width="1" height="1" fill="#3003D9" />
<rect x="40" y="45" width="1" height="1" fill="#3003D9" />
<rect x="41" y="45" width="1" height="1" fill="#3003D9" />
<rect x="42" y="45" width="1" height="1" fill="#3003D9" />
<rect x="43" y="45" width="1" height="1" fill="#000000" />
<rect x="44" y="45" width="1" height="1" fill="#000000" />
<rect x="45" y="45" width="1" height="1" fill="#000000" />
<rect x="46" y="45" width="1" height="1" fill="#000000" />
<rect x="47" y="45" width="1" height="1" fill="#000000" />
<rect x="48" y="45" width="1" height="1" fill="#000000" />
<rect x="49" y="45" width="1" height="1" fill="#0C0293" />
<rect x="50" y="45" width="1" height="1" fill="#0C0293" />
<rect x="51" y="45" width="1" height="1" fill="#0C0293" />
<rect x="52" y="45" width="1" height="1" fill="#0C0293" />
<rect x="53" y="45" width="1" height="1" fill="#0C0293" />
<rect x="54" y="45" width="1" height="1" fill="#0C0293" />
<rect x="55" y="45" width="1" height="1" fill="#000000" />
<rect x="56" y="45" width="1" height="1" fill="#000000" />
<rect x="57" y="45" width="1" height="1" fill="#000000" opacity="0.556863" />
<rect x="58" y="45" width="1" height="1" fill="#000000" opacity="0.556863" />
<rect x="59" y="45" width="1" height="1" fill="#000000" opacity="0.556863" />
<rect x="60" y="45" width="1" height="1" fill="#000000" />
<rect x="4" y="46" width="1" height="1" fill="#000000" />
<rect x="5" y="46" width="1" height="1" fill="#000000" opacity="0.556863" />
<rect x="6" y="46" width="1" height="1" fill="#000000" opacity="0.556863" />
<rect x="7" y="46" width="1" height="1" fill="#000000" opacity="0.556863" />
<rect x="8" y="46" width="1" height="1" fill="#000000" opacity="0.556863" />
<rect x="9" y="46" width="1" height="1" fill="#000000" opacity="0.556863" />
<rect x="10" y="46" width="1" height="1" fill="#000000" />
<rect x="11" y="46" width="1" height="1" fill="#000000" />
<rect x="12" y="46" width="1" height="1" fill="#0C0293" />
<rect x="13" y="46" width="1" height="1" fill="#0C0293" />
<rect x="14" y="46" width="1" height="1" fill="#0C0293" />
<rect x="15" y="46" width="1" height="1" fill="#0C0293" />
<rect x="16" y="46" width="1" height="1" fill="#0C0293" />
<rect x="17" y="46" width="1" height="1" fill="#0C0293" />
<rect x="18" y="46" width="1" height="1" fill="#0C0293" />
<rect x="19" y="46" width="1" height="1" fill="#0C0293" />
<rect x="20" y="46" width="1" height="1" fill="#0C0293" />
<rect x="21" y="46" width="1" height="1" fill="#0C0293" />
<rect x="22" y="46" width="1" height="1" fill="#000000" />
<rect x="23" y="46" width="1" height="1" fill="#000000" />
<rect x="24" y="46" width="1" height="1" fill="#000000" />
<rect x="25" y="46" width="1" height="1" fill="#000000" />
<rect x="26" y="46" width="1" height="1" fill="#000000" />
<rect x="27" y="46" width="1" height="1" fill="#000000" />
<rect x="28" y="46" width="1" height="1" fill="#000000" />
<rect x="29" y="46" width="1" height="1" fill="#000000" />
<rect x="30" y="46" width="1" height="1" fill="#000000" />
<rect x="31" y="46" width="1" height="1" fill="#000000" />
<rect x="32" y="46" width="1" height="1" fill="#000000" />
<rect x="33" y="46" width="1" height="1" fill="#000000" />
<rect x="34" y="46" width="1" height="1" fill="#000000" />
<rect x="35" y="46" width="1" height="1" fill="#000000" />
<rect x="36" y="46" width="1" height="1" fill="#000000" />
<rect x="37" y="46" width="1" height="1" fill="#000000" />
<rect x="38" y="46" width="1" height="1" fill="#000000" />
<rect x="39" y="46" width="1" height="1" fill="#000000" />
<rect x="40" y="46" width="1" height="1" fill="#000000" />
<rect x="41" y="46" width="1" height="1" fill="#000000" />
<rect x="42" y="46" width="1" height="1" fill="#000000" />
<rect x="43" y="46" width="1" height="1" fill="#0C0293" />
<rect x="44" y="46" width="1" height="1" fill="#0C0293" />
<rect x="45" y="46" width="1" height="1" fill="#0C0293" />
<rect x="46" y="46" width="1" height="1" fill="#0C0293" />
<rect x="47" y="46" width="1" height="1" fill="#0C0293" />
<rect x="48" y="46" width="1" height="1" fill="#0C0293" />
<rect x="49" y="46" width="1" height="1" fill="#0C0293" />
<rect x="50" y="46" width="1" height="1" fill="#0C0293" />
<rect x="51" y="46" width="1" height="1" fill="#0C0293" />
<rect x="52" y="46" width="1" height="1" fill="#0C0293" />
<rect x="53" y="46" width="1" height="1" fill="#000000" />
<rect x="54" y="46" width="1" height="1" fill="#000000" />
<rect x="55" y="46" width="1" height="1" fill="#000000" opacity="0.556863" />
<rect x="56" y="46" width="1" height="1" fill="#000000" opacity="0.556863" />
<rect x="57" y="46" width="1" height="1" fill="#000000" opacity="0.556863" />
<rect x="58" y="46" width="1" height="1" fill="#000000" opacity="0.556863" />
<rect x="59" y="46" width="1" height="1" fill="#000000" opacity="0.556863" />
<rect x="60" y="46" width="1" height="1" fill="#000000" />
<rect x="5" y="47" width="1" height="1" fill="#000000" />
<rect x="6" y="47" width="1" height="1" fill="#000000" />
<rect x="7" y="47" width="1" height="1" fill="#000000" opacity="0.556863" />
<rect x="8" y="47" width="1" height="1" fill="#000000" opacity="0.556863" />
<rect x="9" y="47" width="1" height="1" fill="#000000" opacity="0.556863" />
<rect x="10" y="47" width="1" height="1" fill="#000000" opacity="0.556863" />
<rect x="11" y="47" width="1" height="1" fill="#000000" opacity="0.556863" />
<rect x="12" y="47" width="1" height="1" fill="#000000" />
<rect x="13" y="47" width="1" height="1" fill="#000000" />
<rect x="14" y="47" width="1" height="1" fill="#000000" />
<rect x="15" y="47" width="1" height="1" fill="#000000" />
<rect x="16" y="47" width="1" height="1" fill="#0C0293" />
<rect x="17" y="47" width="1" height="1" fill="#0C0293" />
<rect x="18" y="47" width="1" height="1" fill="#0C0293" />
<rect x="19" y="47" width="1" height="1" fill="#0C0293" />
<rect x="20" y="47" width="1" height="1" fill="#0C0293" />
<rect x="21" y="47" width="1" height="1" fill="#0C0293" />
<rect x="22" y="47" width="1" height="1" fill="#0C0293" />
<rect x="23" y="47" width="1" height="1" fill="#0C0293" />
<rect x="24" y="47" width="1" height="1" fill="#0C0293" />
<rect x="25" y="47" width="1" height="1" fill="#0C0293" />
<rect x="26" y="47" width="1" height="1" fill="#0C0293" />
<rect x="27" y="47" width="1" height="1" fill="#0C0293" />
<rect x="28" y="47" width="1" height="1" fill="#0C0293" />
<rect x="29" y="47" width="1" height="1" fill="#0C0293" />
<rect x="30" y="47" width="1" height="1" fill="#0C0293" />
<rect x="31" y="47" width="1" height="1" fill="#0C0293" />
<rect x="32" y="47" width="1" height="1" fill="#0C0293" />
<rect x="33" y="47" width="1" height="1" fill="#0C0293" />
<rect x="34" y="47" width="1" height="1" fill="#0C0293" />
<rect x="35" y="47" width="1" height="1" fill="#0C0293" />
<rect x="36" y="47" width="1" height="1" fill="#0C0293" />
<rect x="37" y="47" width="1" height="1" fill="#0C0293" />
<rect x="38" y="47" width="1" height="1" fill="#0C0293" />
<rect x="39" y="47" width="1" height="1" fill="#0C0293" />
<rect x="40" y="47" width="1" height="1" fill="#0C0293" />
<rect x="41" y="47" width="1" height="1" fill="#0C0293" />
<rect x="42" y="47" width="1" height="1" fill="#0C0293" />
<rect x="43" y="47" width="1" height="1" fill="#0C0293" />
<rect x="44" y="47" width="1" height="1" fill="#0C0293" />
<rect x="45" y="47" width="1" height="1" fill="#0C0293" />
<rect x="46" y="47" width="1" height="1" fill="#0C0293" />
<rect x="47" y="47" width="1" height="1" fill="#0C0293" />
<rect x="48" y="47" width="1" height="1" fill="#0C0293" />
<rect x="49" y="47" width="1" height="1" fill="#000000" />
<rect x="50" y="47" width="1" height="1" fill="#000000" />
<rect x="51" y="47" width="1" height="1" fill="#000000" />
<rect x="52" y="47" width="1" height="1" fill="#000000" />
<rect x="53" y="47" width="1" height="1" fill="#000000" opacity="0.556863" />
<rect x="54" y="47" width="1" height="1" fill="#000000" opacity="0.556863" />
<rect x="55" y="47" width="1" height="1" fill="#000000" opacity="0.556863" />
<rect x="56" y="47" width="1" height="1" fill="#000000" opacity="0.556863" />
<rect x="57" y="47" width="1" height="1" fill="#000000" opacity="0.556863" />
<rect x="58" y="47" width="1" height="1" fill="#000000" />
<rect x="59" y="47" width="1" height="1" fill="#000000" />
<rect x="7" y="48" width="1" height="1" fill="#000000" />
<rect x="8" y="48" width="1" height="1" fill="#000000" />
<rect x="9" y="48" width="1" height="1" fill="#000000" opacity="0.556863" />
<rect x="10" y="48" width="1" height="1" fill="#000000" opacity="0.556863" />
<rect x="11" y="48" width="1" height="1" fill="#000000" opacity="0.556863" />
<rect x="12" y="48" width="1" height="1" fill="#000000" opacity="0.556863" />
<rect x="13" y="48" width="1" height="1" fill="#000000" opacity="0.556863" />
<rect x="14" y="48" width="1" height="1" fill="#000000" opacity="0.556863" />
<rect x="15" y="48" width="1" height="1" fill="#000000" opacity="0.556863" />
<rect x="16" y="48" width="1" height="1" fill="#000000" />
<rect x="17" y="48" width="1" height="1" fill="#000000" />
<rect x="18" y="48" width="1" height="1" fill="#000000" />
<rect x="19" y="48" width="1" height="1" fill="#000000" />
<rect x="20" y="48" width="1" height="1" fill="#000000" />
<rect x="21" y="48" width="1" height="1" fill="#000000" />
<rect x="22" y="48" width="1" height="1" fill="#0C0293" />
<rect x="23" y="48" width="1" height="1" fill="#0C0293" />
<rect x="24" y="48" width="1" height="1" fill="#0C0293" />
<rect x="25" y="48" width="1" height="1" fill="#0C0293" />
<rect x="26" y="48" width="1" height="1" fill="#0C0293" />
<rect x="27" y="48" width="1" height="1" fill="#0C0293" />
<rect x="28" y="48" width="1" height="1" fill="#0C0293" />
<rect x="29" y="48" width="1" height="1" fill="#0C0293" />
<rect x="30" y="48" width="1" height="1" fill="#0C0293" />
<rect x="31" y="48" width="1" height="1" fill="#0C0293" />
<rect x="32" y="48" width="1" height="1" fill="#0C0293" />
<rect x="33" y="48" width="1" height="1" fill="#0C0293" />
<rect x="34" y="48" width="1" height="1" fill="#0C0293" />
<rect x="35" y="48" width="1" height="1" fill="#0C0293" />
<rect x="36" y="48" width="1" height="1" fill="#0C0293" />
<rect x="37" y="48" width="1" height="1" fill="#0C0293" />
<rect x="38" y="48" width="1" height="1" fill="#0C0293" />
<rect x="39" y="48" width="1" height="1" fill="#0C0293" />
<rect x="40" y="48" width="1" height="1" fill="#0C0293" />
<rect x="41" y="48" width="1" height="1" fill="#0C0293" />
<rect x="42" y="48" width="1" height="1" fill="#0C0293" />
<rect x="43" y="48" width="1" height="1" fill="#000000" />
<rect x="44" y="48" width="1" height="1" fill="#000000" />
<rect x="45" y="48" width="1" height="1" fill="#000000" />
<rect x="46" y="48" width="1" height="1" fill="#000000" />
<rect x="47" y="48" width="1" height="1" fill="#000000" />
<rect x="48" y="48" width="1" height="1" fill="#000000" />
<rect x="49" y="48" width="1" height="1" fill="#000000" opacity="0.556863" />
<rect x="50" y="48" width="1" height="1" fill="#000000" opacity="0.556863" />
<rect x="51" y="48" width="1" height="1" fill="#000000" opacity="0.556863" />
<rect x="52" y="48" width="1" height="1" fill="#000000" opacity="0.556863" />
<rect x="53" y="48" width="1" height="1" fill="#000000" opacity="0.556863" />
<rect x="54" y="48" width="1" height="1" fill="#000000" opacity="0.556863" />
<rect x="55" y="48" width="1" height="1" fill="#000000" opacity="0.556863" />
<rect x="56" y="48" width="1" height="1" fill="#000000" />
<rect x="57" y="48" width="1" height="1" fill="#000000" />
<rect x="9" y="49" width="1" height="1" fill="#000000" />
<rect x="10" y="49" width="1" height="1" fill="#000000" />
<rect x="11" y="49" width="1" height="1" fill="#000000" />
<rect x="12" y="49" width="1" height="1" fill="#000000" />
<rect x="13" y="49" width="1" height="1" fill="#000000" opacity="0.556863" />
<rect x="14" y="49" width="1" height="1" fill="#000000" opacity="0.556863" />
<rect x="15" y="49" width="1" height="1" fill="#000000" opacity="0.556863" />
<rect x="16" y="49" width="1" height="1" fill="#000000" opacity="0.556863" />
<rect x="17" y="49" width="1" height="1" fill="#000000" opacity="0.556863" />
<rect x="18" y="49" width="1" height="1" fill="#000000" opacity="0.556863" />
<rect x="19" y="49" width="1" height="1" fill="#000000" opacity="0.556863" />
<rect x="20" y="49" width="1" height="1" fill="#000000" opacity="0.556863" />
<rect x="21" y="49" width="1" height="1" fill="#000000" opacity="0.556863" />
<rect x="22" y="49" width="1" height="1" fill="#000000" />
<rect x="23" y="49" width="1" height="1" fill="#000000" />
<rect x="24" y="49" width="1" height="1" fill="#000000" />
<rect x="25" y="49" width="1" height="1" fill="#000000" />
<rect x="26" y="49" width="1" height="1" fill="#000000" />
<rect x="27" y="49" width="1" height="1" fill="#000000" />
<rect x="28" y="49" width="1" height="1" fill="#000000" />
<rect x="29" y="49" width="1" height="1" fill="#000000" />
<rect x="30" y="49" width="1" height="1" fill="#000000" />
<rect x="31" y="49" width="1" height="1" fill="#000000" />
<rect x="32" y="49" width="1" height="1" fill="#000000" />
<rect x="33" y="49" width="1" height="1" fill="#000000" />
<rect x="34" y="49" width="1" height="1" fill="#000000" />
<rect x="35" y="49" width="1" height="1" fill="#000000" />
<rect x="36" y="49" width="1" height="1" fill="#000000" />
<rect x="37" y="49" width="1" height="1" fill="#000000" />
<rect x="38" y="49" width="1" height="1" fill="#000000" />
<rect x="39" y="49" width="1" height="1" fill="#000000" />
<rect x="40" y="49" width="1" height="1" fill="#000000" />
<rect x="41" y="49" width="1" height="1" fill="#000000" />
<rect x="42" y="49" width="1" height="1" fill="#000000" />
<rect x="43" y="49" width="1" height="1" fill="#000000" opacity="0.556863" />
<rect x="44" y="49" width="1" height="1" fill="#000000" opacity="0.556863" />
<rect x="45" y="49" width="1" height="1" fill="#000000" opacity="0.556863" />
<rect x="46" y="49" width="1" height="1" fill="#000000" opacity="0.556863" />
<rect x="47" y="49" width="1" height="1" fill="#000000" opacity="0.556863" />
<rect x="48" y="49" width="1" height="1" fill="#000000" opacity="0.556863" />
<rect x="49" y="49" width="1" height="1" fill="#000000" opacity="0.556863" />
<rect x="50" y="49" width="1" height="1" fill="#000000" opacity="0.556863" />
<rect x="51" y="49" width="1" height="1" fill="#000000" opacity="0.556863" />
<rect x="52" y="49" width="1" height="1" fill="#000000" />
<rect x="53" y="49" width="1" height="1" fill="#000000" />
<rect x="54" y="49" width="1" height="1" fill="#000000" />
<rect x="55" y="49" width="1" height="1" fill="#000000" />
<rect x="13" y="50" width="1" height="1" fill="#000000" />
<rect x="14" y="50" width="1" height="1" fill="#000000" />
<rect x="15" y="50" width="1" height="1" fill="#000000" />
<rect x="16" y="50" width="1" height="1" fill="#000000" />
<rect x="17" y="50" width="1" height="1" fill="#000000" />
<rect x="18" y="50" width="1" height="1" fill="#000000" />
<rect x="19" y="50" width="1" height="1" fill="#000000" opacity="0.556863" />
<rect x="20" y="50" width="1" height="1" fill="#000000" opacity="0.556863" />
<rect x="21" y="50" width="1" height="1" fill="#000000" opacity="0.556863" />
<rect x="22" y="50" width="1" height="1" fill="#000000" opacity="0.556863" />
<rect x="23" y="50" width="1" height="1" fill="#000000" opacity="0.556863" />
<rect x="24" y="50" width="1" height="1" fill="#000000" opacity="0.556863" />
<rect x="25" y="50" width="1" height="1" fill="#000000" opacity="0.556863" />
<rect x="26" y="50" width="1" height="1" fill="#000000" opacity="0.556863" />
<rect x="27" y="50" width="1" height="1" fill="#000000" opacity="0.556863" />
<rect x="28" y="50" width="1" height="1" fill="#000000" opacity="0.556863" />
<rect x="29" y="50" width="1" height="1" fill="#000000" opacity="0.556863" />
<rect x="30" y="50" width="1" height="1" fill="#000000" opacity="0.556863" />
<rect x="31" y="50" width="1" height="1" fill="#000000" opacity="0.556863" />
<rect x="32" y="50" width="1" height="1" fill="#000000" opacity="0.556863" />
<rect x="33" y="50" width="1" height="1" fill="#000000" opacity="0.556863" />
<rect x="34" y="50" width="1" height="1" fill="#000000" opacity="0.556863" />
<rect x="35" y="50" width="1" height="1" fill="#000000" opacity="0.556863" />
<rect x="36" y="50" width="1" height="1" fill="#000000" opacity="0.556863" />
<rect x="37" y="50" width="1" height="1" fill="#000000" opacity="0.556863" />
<rect x="38" y="50" width="1" height="1" fill="#000000" opacity="0.556863" />
<rect x="39" y="50" width="1" height="1" fill="#000000" opacity="0.556863" />
<rect x="40" y="50" width="1" height="1" fill="#000000" opacity="0.556863" />
<rect x="41" y="50" width="1" height="1" fill="#000000" opacity="0.556863" />
<rect x="42" y="50" width="1" height="1" fill="#000000" opacity="0.556863" />
<rect x="43" y="50" width="1" height="1" fill="#000000" opacity="0.556863" />
<rect x="44" y="50" width="1" height="1" fill="#000000" opacity="0.556863" />
<rect x="45" y="50" width="1" height="1" fill="#000000" opacity="0.556863" />
<rect x="46" y="50" width="1" height="1" fill="#000000" />
<rect x="47" y="50" width="1" height="1" fill="#000000" />
<rect x="48" y="50" width="1" height="1" fill="#000000" />
<rect x="49" y="50" width="1" height="1" fill="#000000" />
<rect x="50" y="50" width="1" height="1" fill="#000000" />
<rect x="51" y="50" width="1" height="1" fill="#000000" />
<rect x="19" y="51" width="1" height="1" fill="#000000" />
<rect x="20" y="51" width="1" height="1" fill="#000000" />
<rect x="21" y="51" width="1" height="1" fill="#000000" />
<rect x="22" y="51" width="1" height="1" fill="#000000" />
<rect x="23" y="51" width="1" height="1" fill="#000000" />
<rect x="24" y="51" width="1" height="1" fill="#000000" />
<rect x="25" y="51" width="1" height="1" fill="#000000" />
<rect x="26" y="51" width="1" height="1" fill="#000000" />
<rect x="27" y="51" width="1" height="1" fill="#000000" />
<rect x="28" y="51" width="1" height="1" fill="#000000" />
<rect x="29" y="51" width="1" height="1" fill="#000000" />
<rect x="30" y="51" width="1" height="1" fill="#000000" />
<rect x="31" y="51" width="1" height="1" fill="#000000" />
<rect x="32" y="51" width="1" height="1" fill="#000000" />
<rect x="33" y="51" width="1" height="1" fill="#000000" />
<rect x="34" y="51" width="1" height="1" fill="#000000" />
<rect x="35" y="51" width="1" height="1" fill="#000000" />
<rect x="36" y="51" width="1" height="1" fill="#000000" />
<rect x="37" y="51" width="1" height="1" fill="#000000" />
<rect x="38" y="51" width="1" height="1" fill="#000000" />
<rect x="39" y="51" width="1" height="1" fill="#000000" />
<rect x="40" y="51" width="1" height="1" fill="#000000" />
<rect x="41" y="51" width="1" height="1" fill="#000000" />
<rect x="42" y="51" width="1" height="1" fill="#000000" />
<rect x="43" y="51" width="1" height="1" fill="#000000" />
<rect x="44" y="51" width="1" height="1" fill="#000000" />
<rect x="45" y="51" width="1" height="1" fill="#000000" />
</svg>