<?xml version="1.0" encoding="UTF-8" ?>
<svg version="1.1" width="64" height="64" xmlns="http://www.w3.org/2000/svg" shape-rendering="crispEdges">
<rect x="45" y="2" width="1" height="1" fill="#000000" />
<rect x="46" y="2" width="1" height="1" fill="#000000" />
<rect x="47" y="2" width="1" height="1" fill="#000000" />
<rect x="43" y="3" width="1" height="1" fill="#000000" />
<rect x="44" y="3" width="1" height="1" fill="#000000" />
<rect x="45" y="3" width="1" height="1" fill="#000000" opacity="0.556863" />
<rect x="46" y="3" width="1" height="1" fill="#000000" opacity="0.556863" />
<rect x="47" y="3" width="1" height="1" fill="#000000" opacity="0.556863" />
<rect x="48" y="3" width="1" height="1" fill="#000000" />
<rect x="42" y="4" width="1" height="1" fill="#000000" />
<rect x="43" y="4" width="1" height="1" fill="#000000" opacity="0.556863" />
<rect x="44" y="4" width="1" height="1" fill="#000000" opacity="0.556863" />
<rect x="45" y="4" width="1" height="1" fill="#000000" opacity="0.556863" />
<rect x="46" y="4" width="1" height="1" fill="#000000" opacity="0.556863" />
<rect x="47" y="4" width="1" height="1" fill="#000000" opacity="0.556863" />
<rect x="48" y="4" width="1" height="1" fill="#000000" />
<rect x="42" y="5" width="1" height="1" fill="#000000" />
<rect x="43" y="5" width="1" height="1" fill="#000000" />
<rect x="44" y="5" width="1" height="1" fill="#000000" />
<rect x="45" y="5" width="1" height="1" fill="#000000" />
<rect x="46" y="5" width="1" height="1" fill="#000000" opacity="0.556863" />
<rect x="47" y="5" width="1" height="1" fill="#000000" opacity="0.556863" />
<rect x="48" y="5" width="1" height="1" fill="#000000" opacity="0.556863" />
<rect x="49" y="5" width="1" height="1" fill="#000000" />
<rect x="41" y="6" width="1" height="1" fill="#000000" />
<rect x="42" y="6" width="1" height="1" fill="#000000" />
<rect x="43" y="6" width="1" height="1" fill="#C42430" />
<rect x="44" y="6" width="1" height="1" fill="#C42430" />
<rect x="45" y="6" width="1" height="1" fill="#C42430" />
<rect x="46" y="6" width="1" height="1" fill="#000000" />
<rect x="47" y="6" width="1" height="1" fill="#000000" opacity="0.556863" />
<rect x="48" y="6" width="1" height="1" fill="#000000" opacity="0.556863" />
<rect x="49" y="6" width="1" height="1" fill="#000000" />
<rect x="41" y="7" width="1" height="1" fill="#000000" />
<rect x="42" y="7" width="1" height="1" fill="#EA323C" />
<rect x="43" y="7" width="1" height="1" fill="#000000" />
<rect x="44" y="7" width="1" height="1" fill="#C42430" />
<rect x="45" y="7" width="1" height="1" fill="#C42430" />
<rect x="46" y="7" width="1" height="1" fill="#000000" />
<rect x="47" y="7" width="1" height="1" fill="#000000" opacity="0.556863" />
<rect x="48" y="7" width="1" height="1" fill="#000000" opacity="0.556863" />
<rect x="49" y="7" width="1" height="1" fill="#000000" opacity="0.556863" />
<rect x="50" y="7" width="1" height="1" fill="#000000" />
<rect x="40" y="8" width="1" height="1" fill="#000000" />
<rect x="41" y="8" width="1" height="1" fill="#EA323C" />
<rect x="42" y="8" width="1" height="1" fill="#EA323C" />
<rect x="43" y="8" width="1" height="1" fill="#EA323C" />
<rect x="44" y="8" width="1" height="1" fill="#000000" />
<rect x="45" y="8" width="1" height="1" fill="#C42430" />
<rect x="46" y="8" width="1" height="1" fill="#C42430" />
<rect x="47" y="8" width="1" height="1" fill="#000000" />
<rect x="48" y="8" width="1" height="1" fill="#000000" opacity="0.556863" />
<rect x="49" y="8" width="1" height="1" fill="#000000" opacity="0.556863" />
<rect x="50" y="8" width="1" height="1" fill="#000000" />
<rect x="40" y="9" width="1" height="1" fill="#000000" />
<rect x="41" y="9" width="1" height="1" fill="#EA323C" />
<rect x="42" y="9" width="1" height="1" fill="#EA323C" />
<rect x="43" y="9" width="1" height="1" fill="#EA323C" />
<rect x="44" y="9" width="1" height="1" fill="#000000" />
<rect x="45" y="9" width="1" height="1" fill="#C42430" />
<rect x="46" y="9" width="1" height="1" fill="#C42430" />
<rect x="47" y="9" width="1" height="1" fill="#000000" />
<rect x="48" y="9" width="1" height="1" fill="#000000" opacity="0.556863" />
<rect x="49" y="9" width="1" height="1" fill="#000000" opacity="0.556863" />
<rect x="50" y="9" width="1" height="1" fill="#000000" />
<rect x="39" y="10" width="1" height="1" fill="#000000" />
<rect x="40" y="10" width="1" height="1" fill="#EA323C" />
<rect x="41" y="10" width="1" height="1" fill="#EA323C" />
<rect x="42" y="10" width="1" height="1" fill="#EA323C" />
<rect x="43" y="10" width="1" height="1" fill="#EA323C" />
<rect x="44" y="10" width="1" height="1" fill="#EA323C" />
<rect x="45" y="10" width="1" height="1" fill="#000000" />
<rect x="46" y="10" width="1" height="1" fill="#C42430" />
<rect x="47" y="10" width="1" height="1" fill="#C42430" />
<rect x="48" y="10" width="1" height="1" fill="#000000" />
<rect x="49" y="10" width="1" height="1" fill="#000000" opacity="0.556863" />
<rect x="50" y="10" width="1" height="1" fill="#000000" />
<rect x="39" y="11" width="1" height="1" fill="#000000" />
<rect x="40" y="11" width="1" height="1" fill="#EA323C" />
<rect x="41" y="11" width="1" height="1" fill="#EA323C" />
<rect x="42" y="11" width="1" height="1" fill="#EA323C" />
<rect x="43" y="11" width="1" height="1" fill="#C42430" />
<rect x="44" y="11" width="1" height="1" fill="#EA323C" />
<rect x="45" y="11" width="1" height="1" fill="#000000" />
<rect x="46" y="11" width="1" height="1" fill="#C42430" />
<rect x="47" y="11" width="1" height="1" fill="#C42430" />
<rect x="48" y="11" width="1" height="1" fill="#000000" />
<rect x="49" y="11" width="1" height="1" fill="#000000" opacity="0.556863" />
<rect x="50" y="11" width="1" height="1" fill="#000000" opacity="0.556863" />
<rect x="51" y="11" width="1" height="1" fill="#000000" />
<rect x="39" y="12" width="1" height="1" fill="#000000" />
<rect x="40" y="12" width="1" height="1" fill="#EA323C" />
<rect x="41" y="12" width="1" height="1" fill="#EA323C" />
<rect x="42" y="12" width="1" height="1" fill="#C42430" />
<rect x="43" y="12" width="1" height="1" fill="#C42430" />
<rect x="44" y="12" width="1" height="1" fill="#C42430" />
<rect x="45" y="12" width="1" height="1" fill="#000000" />
<rect x="46" y="12" width="1" height="1" fill="#C42430" />
<rect x="47" y="12" width="1" height="1" fill="#C42430" />
<rect x="48" y="12" width="1" height="1" fill="#000000" />
<rect x="49" y="12" width="1" height="1" fill="#000000" opacity="0.556863" />
<rect x="50" y="12" width="1" height="1" fill="#000000" opacity="0.556863" />
<rect x="51" y="12" width="1" height="1" fill="#000000" />
<rect x="39" y="13" width="1" height="1" fill="#000000" />
<rect x="40" y="13" width="1" height="1" fill="#EA323C" />
<rect x="41" y="13" width="1" height="1" fill="#C42430" />
<rect x="42" y="13" width="1" height="1" fill="#C42430" />
<rect x="43" y="13" width="1" height="1" fill="#C42430" />
<rect x="44" y="13" width="1" height="1" fill="#C42430" />
<rect x="45" y="13" width="1" height="1" fill="#000000" />
<rect x="46" y="13" width="1" height="1" fill="#C42430" />
<rect x="47" y="13" width="1" height="1" fill="#C42430" />
<rect x="48" y="13" width="1" height="1" fill="#000000" />
<rect x="49" y="13" width="1" height="1" fill="#000000" opacity="0.556863" />
<rect x="50" y="13" width="1" height="1" fill="#000000" opacity="0.556863" />
<rect x="51" y="13" width="1" height="1" fill="#000000" />
<rect x="38" y="14" width="1" height="1" fill="#000000" />
<rect x="39" y="14" width="1" height="1" fill="#EA323C" />
<rect x="40" y="14" width="1" height="1" fill="#C42430" />
<rect x="41" y="14" width="1" height="1" fill="#C42430" />
<rect x="42" y="14" width="1" height="1" fill="#C42430" />
<rect x="43" y="14" width="1" height="1" fill="#C42430" />
<rect x="44" y="14" width="1" height="1" fill="#C42430" />
<rect x="45" y="14" width="1" height="1" fill="#C42430" />
<rect x="46" y="14" width="1" height="1" fill="#000000" />
<rect x="47" y="14" width="1" height="1" fill="#C42430" />
<rect x="48" y="14" width="1" height="1" fill="#C42430" />
<rect x="49" y="14" width="1" height="1" fill="#000000" />
<rect x="50" y="14" width="1" height="1" fill="#000000" opacity="0.556863" />
<rect x="51" y="14" width="1" height="1" fill="#000000" />
<rect x="38" y="15" width="1" height="1" fill="#000000" />
<rect x="39" y="15" width="1" height="1" fill="#C42430" />
<rect x="40" y="15" width="1" height="1" fill="#C42430" />
<rect x="41" y="15" width="1" height="1" fill="#C42430" />
<rect x="42" y="15" width="1" height="1" fill="#C42430" />
<rect x="43" y="15" width="1" height="1" fill="#C42430" />
<rect x="44" y="15" width="1" height="1" fill="#C42430" />
<rect x="45" y="15" width="1" height="1" fill="#C42430" />
<rect x="46" y="15" width="1" height="1" fill="#000000" />
<rect x="47" y="15" width="1" height="1" fill="#C42430" />
<rect x="48" y="15" width="1" height="1" fill="#C42430" />
<rect x="49" y="15" width="1" height="1" fill="#000000" />
<rect x="50" y="15" width="1" height="1" fill="#000000" opacity="0.556863" />
<rect x="51" y="15" width="1" height="1" fill="#000000" />
<rect x="38" y="16" width="1" height="1" fill="#000000" />
<rect x="39" y="16" width="1" height="1" fill="#C42430" />
<rect x="40" y="16" width="1" height="1" fill="#C42430" />
<rect x="41" y="16" width="1" height="1" fill="#C42430" />
<rect x="42" y="16" width="1" height="1" fill="#C42430" />
<rect x="43" y="16" width="1" height="1" fill="#C42430" />
<rect x="44" y="16" width="1" height="1" fill="#C42430" />
<rect x="45" y="16" width="1" height="1" fill="#C42430" />
<rect x="46" y="16" width="1" height="1" fill="#000000" />
<rect x="47" y="16" width="1" height="1" fill="#C42430" />
<rect x="48" y="16" width="1" height="1" fill="#C42430" />
<rect x="49" y="16" width="1" height="1" fill="#000000" />
<rect x="50" y="16" width="1" height="1" fill="#000000" opacity="0.556863" />
<rect x="51" y="16" width="1" height="1" fill="#000000" />
<rect x="38" y="17" width="1" height="1" fill="#000000" />
<rect x="39" y="17" width="1" height="1" fill="#C42430" />
<rect x="40" y="17" width="1" height="1" fill="#C42430" />
<rect x="41" y="17" width="1" height="1" fill="#C42430" />
<rect x="42" y="17" width="1" height="1" fill="#C42430" />
<rect x="43" y="17" width="1" height="1" fill="#C42430" />
<rect x="44" y="17" width="1" height="1" fill="#C42430" />
<rect x="45" y="17" width="1" height="1" fill="#C42430" />
<rect x="46" y="17" width="1" height="1" fill="#000000" />
<rect x="47" y="17" width="1" height="1" fill="#C42430" />
<rect x="48" y="17" width="1" height="1" fill="#891E2B" />
<rect x="49" y="17" width="1" height="1" fill="#000000" />
<rect x="50" y="17" width="1" height="1" fill="#000000" opacity="0.556863" />
<rect x="51" y="17" width="1" height="1" fill="#000000" opacity="0.556863" />
<rect x="52" y="17" width="1" height="1" fill="#000000" />
<rect x="38" y="18" width="1" height="1" fill="#000000" />
<rect x="39" y="18" width="1" height="1" fill="#C42430" />
<rect x="40" y="18" width="1" height="1" fill="#C42430" />
<rect x="41" y="18" width="1" height="1" fill="#C42430" />
<rect x="42" y="18" width="1" height="1" fill="#C42430" />
<rect x="43" y="18" width="1" height="1" fill="#C42430" />
<rect x="44" y="18" width="1" height="1" fill="#C42430" />
<rect x="45" y="18" width="1" height="1" fill="#C42430" />
<rect x="46" y="18" width="1" height="1" fill="#000000" />
<rect x="47" y="18" width="1" height="1" fill="#891E2B" />
<rect x="48" y="18" width="1" height="1" fill="#891E2B" />
<rect x="49" y="18" width="1" height="1" fill="#000000" />
<rect x="50" y="18" width="1" height="1" fill="#000000" opacity="0.556863" />
<rect x="51" y="18" width="1" height="1" fill="#000000" opacity="0.556863" />
<rect x="52" y="18" width="1" height="1" fill="#000000" />
<rect x="38" y="19" width="1" height="1" fill="#000000" />
<rect x="39" y="19" width="1" height="1" fill="#C42430" />
<rect x="40" y="19" width="1" height="1" fill="#C42430" />
<rect x="41" y="19" width="1" height="1" fill="#C42430" />
<rect x="42" y="19" width="1" height="1" fill="#C42430" />
<rect x="43" y="19" width="1" height="1" fill="#C42430" />
<rect x="44" y="19" width="1" height="1" fill="#C42430" />
<rect x="45" y="19" width="1" height="1" fill="#C42430" />
<rect x="46" y="19" width="1" height="1" fill="#000000" />
<rect x="47" y="19" width="1" height="1" fill="#891E2B" />
<rect x="48" y="19" width="1" height="1" fill="#891E2B" />
<rect x="49" y="19" width="1" height="1" fill="#000000" />
<rect x="50" y="19" width="1" height="1" fill="#000000" opacity="0.556863" />
<rect x="51" y="19" width="1" height="1" fill="#000000" opacity="0.556863" />
<rect x="52" y="19" width="1" height="1" fill="#000000" />
<rect x="37" y="20" width="1" height="1" fill="#000000" />
<rect x="38" y="20" width="1" height="1" fill="#C42430" />
<rect x="39" y="20" width="1" height="1" fill="#C42430" />
<rect x="40" y="20" width="1" height="1" fill="#C42430" />
<rect x="41" y="20" width="1" height="1" fill="#C42430" />
<rect x="42" y="20" width="1" height="1" fill="#C42430" />
<rect x="43" y="20" width="1" height="1" fill="#C42430" />
<rect x="44" y="20" width="1" height="1" fill="#C42430" />
<rect x="45" y="20" width="1" height="1" fill="#C42430" />
<rect x="46" y="20" width="1" height="1" fill="#C42430" />
<rect x="47" y="20" width="1" height="1" fill="#000000" />
<rect x="48" y="20" width="1" height="1" fill="#891E2B" />
<rect x="49" y="20" width="1" height="1" fill="#891E2B" />
<rect x="50" y="20" width="1" height="1" fill="#000000" />
<rect x="51" y="20" width="1" height="1" fill="#000000" opacity="0.556863" />
<rect x="52" y="20" width="1" height="1" fill="#000000" />
<rect x="37" y="21" width="1" height="1" fill="#000000" />
<rect x="38" y="21" width="1" height="1" fill="#C42430" />
<rect x="39" y="21" width="1" height="1" fill="#C42430" />
<rect x="40" y="21" width="1" height="1" fill="#C42430" />
<rect x="41" y="21" width="1" height="1" fill="#C42430" />
<rect x="42" y="21" width="1" height="1" fill="#C42430" />
<rect x="43" y="21" width="1" height="1" fill="#C42430" />
<rect x="44" y="21" width="1" height="1" fill="#C42430" />
<rect x="45" y="21" width="1" height="1" fill="#C42430" />
<rect x="46" y="21" width="1" height="1" fill="#C42430" />
<rect x="47" y="21" width="1" height="1" fill="#000000" />
<rect x="48" y="21" width="1" height="1" fill="#891E2B" />
<rect x="49" y="21" width="1" height="1" fill="#891E2B" />
<rect x="50" y="21" width="1" height="1" fill="#000000" />
<rect x="51" y="21" width="1" height="1" fill="#000000" opacity="0.556863" />
<rect x="52" y="21" width="1" height="1" fill="#000000" />
<rect x="37" y="22" width="1" height="1" fill="#000000" />
<rect x="38" y="22" width="1" height="1" fill="#C42430" />
<rect x="39" y="22" width="1" height="1" fill="#C42430" />
<rect x="40" y="22" width="1" height="1" fill="#C42430" />
<rect x="41" y="22" width="1" height="1" fill="#C42430" />
<rect x="42" y="22" width="1" height="1" fill="#C42430" />
<rect x="43" y="22" width="1" height="1" fill="#C42430" />
<rect x="44" y="22" width="1" height="1" fill="#C42430" />
<rect x="45" y="22" width="1" height="1" fill="#C42430" />
<rect x="46" y="22" width="1" height="1" fill="#C42430" />
<rect x="47" y="22" width="1" height="1" fill="#000000" />
<rect x="48" y="22" width="1" height="1" fill="#891E2B" />
<rect x="49" y="22" width="1" height="1" fill="#891E2B" />
<rect x="50" y="22" width="1" height="1" fill="#000000" />
<rect x="51" y="22" width="1" height="1" fill="#000000" opacity="0.556863" />
<rect x="52" y="22" width="1" height="1" fill="#000000" />
<rect x="37" y="23" width="1" height="1" fill="#000000" />
<rect x="38" y="23" width="1" height="1" fill="#C42430" />
<rect x="39" y="23" width="1" height="1" fill="#C42430" />
<rect x="40" y="23" width="1" height="1" fill="#C42430" />
<rect x="41" y="23" width="1" height="1" fill="#C42430" />
<rect x="42" y="23" width="1" height="1" fill="#C42430" />
<rect x="43" y="23" width="1" height="1" fill="#C42430" />
<rect x="44" y="23" width="1" height="1" fill="#C42430" />
<rect x="45" y="23" width="1" height="1" fill="#C42430" />
<rect x="46" y="23" width="1" height="1" fill="#C42430" />
<rect x="47" y="23" width="1" height="1" fill="#000000" />
<rect x="48" y="23" width="1" height="1" fill="#891E2B" />
<rect x="49" y="23" width="1" height="1" fill="#891E2B" />
<rect x="50" y="23" width="1" height="1" fill="#000000" />
<rect x="51" y="23" width="1" height="1" fill="#000000" opacity="0.556863" />
<rect x="52" y="23" width="1" height="1" fill="#000000" />
<rect x="37" y="24" width="1" height="1" fill="#000000" />
<rect x="38" y="24" width="1" height="1" fill="#C42430" />
<rect x="39" y="24" width="1" height="1" fill="#C42430" />
<rect x="40" y="24" width="1" height="1" fill="#C42430" />
<rect x="41" y="24" width="1" height="1" fill="#C42430" />
<rect x="42" y="24" width="1" height="1" fill="#C42430" />
<rect x="43" y="24" width="1" height="1" fill="#C42430" />
<rect x="44" y="24" width="1" height="1" fill="#C42430" />
<rect x="45" y="24" width="1" height="1" fill="#C42430" />
<rect x="46" y="24" width="1" height="1" fill="#C42430" />
<rect x="47" y="24" width="1" height="1" fill="#000000" />
<rect x="48" y="24" width="1" height="1" fill="#891E2B" />
<rect x="49" y="24" width="1" height="1" fill="#891E2B" />
<rect x="50" y="24" width="1" height="1" fill="#000000" />
<rect x="51" y="24" width="1" height="1" fill="#000000" opacity="0.556863" />
<rect x="52" y="24" width="1" height="1" fill="#000000" />
<rect x="37" y="25" width="1" height="1" fill="#000000" />
<rect x="38" y="25" width="1" height="1" fill="#C42430" />
<rect x="39" y="25" width="1" height="1" fill="#C42430" />
<rect x="40" y="25" width="1" height="1" fill="#C42430" />
<rect x="41" y="25" width="1" height="1" fill="#C42430" />
<rect x="42" y="25" width="1" height="1" fill="#C42430" />
<rect x="43" y="25" width="1" height="1" fill="#C42430" />
<rect x="44" y="25" width="1" height="1" fill="#C42430" />
<rect x="45" y="25" width="1" height="1" fill="#C42430" />
<rect x="46" y="25" width="1" height="1" fill="#C42430" />
<rect x="47" y="25" width="1" height="1" fill="#000000" />
<rect x="48" y="25" width="1" height="1" fill="#891E2B" />
<rect x="49" y="25" width="1" height="1" fill="#891E2B" />
<rect x="50" y="25" width="1" height="1" fill="#000000" />
<rect x="51" y="25" width="1" height="1" fill="#000000" opacity="0.556863" />
<rect x="52" y="25" width="1" height="1" fill="#000000" />
<rect x="37" y="26" width="1" height="1" fill="#000000" />
<rect x="38" y="26" width="1" height="1" fill="#C42430" />
<rect x="39" y="26" width="1" height="1" fill="#C42430" />
<rect x="40" y="26" width="1" height="1" fill="#C42430" />
<rect x="41" y="26" width="1" height="1" fill="#C42430" />
<rect x="42" y="26" width="1" height="1" fill="#C42430" />
<rect x="43" y="26" width="1" height="1" fill="#C42430" />
<rect x="44" y="26" width="1" height="1" fill="#C42430" />
<rect x="45" y="26" width="1" height="1" fill="#C42430" />
<rect x="46" y="26" width="1" height="1" fill="#C42430" />
<rect x="47" y="26" width="1" height="1" fill="#000000" />
<rect x="48" y="26" width="1" height="1" fill="#891E2B" />
<rect x="49" y="26" width="1" height="1" fill="#891E2B" />
<rect x="50" y="26" width="1" height="1" fill="#000000" />
<rect x="51" y="26" width="1" height="1" fill="#000000" opacity="0.556863" />
<rect x="52" y="26" width="1" height="1" fill="#000000" />
<rect x="37" y="27" width="1" height="1" fill="#000000" />
<rect x="38" y="27" width="1" height="1" fill="#C42430" />
<rect x="39" y="27" width="1" height="1" fill="#C42430" />
<rect x="40" y="27" width="1" height="1" fill="#C42430" />
<rect x="41" y="27" width="1" height="1" fill="#C42430" />
<rect x="42" y="27" width="1" height="1" fill="#C42430" />
<rect x="43" y="27" width="1" height="1" fill="#C42430" />
<rect x="44" y="27" width="1" height="1" fill="#C42430" />
<rect x="45" y="27" width="1" height="1" fill="#C42430" />
<rect x="46" y="27" width="1" height="1" fill="#C42430" />
<rect x="47" y="27" width="1" height="1" fill="#000000" />
<rect x="48" y="27" width="1" height="1" fill="#891E2B" />
<rect x="49" y="27" width="1" height="1" fill="#891E2B" />
<rect x="50" y="27" width="1" height="1" fill="#000000" />
<rect x="51" y="27" width="1" height="1" fill="#000000" opacity="0.556863" />
<rect x="52" y="27" width="1" height="1" fill="#000000" />
<rect x="37" y="28" width="1" height="1" fill="#000000" />
<rect x="38" y="28" width="1" height="1" fill="#C42430" />
<rect x="39" y="28" width="1" height="1" fill="#C42430" />
<rect x="40" y="28" width="1" height="1" fill="#C42430" />
<rect x="41" y="28" width="1" height="1" fill="#C42430" />
<rect x="42" y="28" width="1" height="1" fill="#C42430" />
<rect x="43" y="28" width="1" height="1" fill="#C42430" />
<rect x="44" y="28" width="1" height="1" fill="#C42430" />
<rect x="45" y="28" width="1" height="1" fill="#C42430" />
<rect x="46" y="28" width="1" height="1" fill="#C42430" />
<rect x="47" y="28" width="1" height="1" fill="#000000" />
<rect x="48" y="28" width="1" height="1" fill="#891E2B" />
<rect x="49" y="28" width="1" height="1" fill="#891E2B" />
<rect x="50" y="28" width="1" height="1" fill="#000000" />
<rect x="51" y="28" width="1" height="1" fill="#000000" opacity="0.556863" />
<rect x="52" y="28" width="1" height="1" fill="#000000" />
<rect x="37" y="29" width="1" height="1" fill="#000000" />
<rect x="38" y="29" width="1" height="1" fill="#C42430" />
<rect x="39" y="29" width="1" height="1" fill="#C42430" />
<rect x="40" y="29" width="1" height="1" fill="#C42430" />
<rect x="41" y="29" width="1" height="1" fill="#C42430" />
<rect x="42" y="29" width="1" height="1" fill="#C42430" />
<rect x="43" y="29" width="1" height="1" fill="#C42430" />
<rect x="44" y="29" width="1" height="1" fill="#C42430" />
<rect x="45" y="29" width="1" height="1" fill="#C42430" />
<rect x="46" y="29" width="1" height="1" fill="#C42430" />
<rect x="47" y="29" width="1" height="1" fill="#000000" />
<rect x="48" y="29" width="1" height="1" fill="#891E2B" />
<rect x="49" y="29" width="1" height="1" fill="#891E2B" />
<rect x="50" y="29" width="1" height="1" fill="#000000" />
<rect x="51" y="29" width="1" height="1" fill="#000000" opacity="0.556863" />
<rect x="52" y="29" width="1" height="1" fill="#000000" />
<rect x="37" y="30" width="1" height="1" fill="#000000" />
<rect x="38" y="30" width="1" height="1" fill="#C42430" />
<rect x="39" y="30" width="1" height="1" fill="#C42430" />
<rect x="40" y="30" width="1" height="1" fill="#C42430" />
<rect x="41" y="30" width="1" height="1" fill="#C42430" />
<rect x="42" y="30" width="1" height="1" fill="#C42430" />
<rect x="43" y="30" width="1" height="1" fill="#C42430" />
<rect x="44" y="30" width="1" height="1" fill="#C42430" />
<rect x="45" y="30" width="1" height="1" fill="#C42430" />
<rect x="46" y="30" width="1" height="1" fill="#C42430" />
<rect x="47" y="30" width="1" height="1" fill="#000000" />
<rect x="48" y="30" width="1" height="1" fill="#891E2B" />
<rect x="49" y="30" width="1" height="1" fill="#891E2B" />
<rect x="50" y="30" width="1" height="1" fill="#000000" />
<rect x="51" y="30" width="1" height="1" fill="#000000" opacity="0.556863" />
<rect x="52" y="30" width="1" height="1" fill="#000000" />
<rect x="37" y="31" width="1" height="1" fill="#000000" />
<rect x="38" y="31" width="1" height="1" fill="#C42430" />
<rect x="39" y="31" width="1" height="1" fill="#C42430" />
<rect x="40" y="31" width="1" height="1" fill="#C42430" />
<rect x="41" y="31" width="1" height="1" fill="#C42430" />
<rect x="42" y="31" width="1" height="1" fill="#C42430" />
<rect x="43" y="31" width="1" height="1" fill="#C42430" />
<rect x="44" y="31" width="1" height="1" fill="#C42430" />
<rect x="45" y="31" width="1" height="1" fill="#C42430" />
<rect x="46" y="31" width="1" height="1" fill="#C42430" />
<rect x="47" y="31" width="1" height="1" fill="#000000" />
<rect x="48" y="31" width="1" height="1" fill="#891E2B" />
<rect x="49" y="31" width="1" height="1" fill="#891E2B" />
<rect x="50" y="31" width="1" height="1" fill="#000000" />
<rect x="51" y="31" width="1" height="1" fill="#000000" opacity="0.556863" />
<rect x="52" y="31" width="1" height="1" fill="#000000" />
<rect x="37" y="32" width="1" height="1" fill="#000000" />
<rect x="38" y="32" width="1" height="1" fill="#C42430" />
<rect x="39" y="32" width="1" height="1" fill="#C42430" />
<rect x="40" y="32" width="1" height="1" fill="#C42430" />
<rect x="41" y="32" width="1" height="1" fill="#C42430" />
<rect x="42" y="32" width="1" height="1" fill="#C42430" />
<rect x="43" y="32" width="1" height="1" fill="#C42430" />
<rect x="44" y="32" width="1" height="1" fill="#C42430" />
<rect x="45" y="32" width="1" height="1" fill="#C42430" />
<rect x="46" y="32" width="1" height="1" fill="#C42430" />
<rect x="47" y="32" width="1" height="1" fill="#000000" />
<rect x="48" y="32" width="1" height="1" fill="#891E2B" />
<rect x="49" y="32" width="1" height="1" fill="#891E2B" />
<rect x="50" y="32" width="1" height="1" fill="#000000" />
<rect x="51" y="32" width="1" height="1" fill="#000000" opacity="0.556863" />
<rect x="52" y="32" width="1" height="1" fill="#000000" />
<rect x="37" y="33" width="1" height="1" fill="#000000" />
<rect x="38" y="33" width="1" height="1" fill="#C42430" />
<rect x="39" y="33" width="1" height="1" fill="#C42430" />
<rect x="40" y="33" width="1" height="1" fill="#C42430" />
<rect x="41" y="33" width="1" height="1" fill="#C42430" />
<rect x="42" y="33" width="1" height="1" fill="#C42430" />
<rect x="43" y="33" width="1" height="1" fill="#C42430" />
<rect x="44" y="33" width="1" height="1" fill="#C42430" />
<rect x="45" y="33" width="1" height="1" fill="#C42430" />
<rect x="46" y="33" width="1" height="1" fill="#C42430" />
<rect x="47" y="33" width="1" height="1" fill="#000000" />
<rect x="48" y="33" width="1" height="1" fill="#891E2B" />
<rect x="49" y="33" width="1" height="1" fill="#891E2B" />
<rect x="50" y="33" width="1" height="1" fill="#000000" />
<rect x="51" y="33" width="1" height="1" fill="#000000" opacity="0.556863" />
<rect x="52" y="33" width="1" height="1" fill="#000000" />
<rect x="37" y="34" width="1" height="1" fill="#000000" />
<rect x="38" y="34" width="1" height="1" fill="#C42430" />
<rect x="39" y="34" width="1" height="1" fill="#C42430" />
<rect x="40" y="34" width="1" height="1" fill="#C42430" />
<rect x="41" y="34" width="1" height="1" fill="#C42430" />
<rect x="42" y="34" width="1" height="1" fill="#C42430" />
<rect x="43" y="34" width="1" height="1" fill="#C42430" />
<rect x="44" y="34" width="1" height="1" fill="#C42430" />
<rect x="45" y="34" width="1" height="1" fill="#C42430" />
<rect x="46" y="34" width="1" height="1" fill="#C42430" />
<rect x="47" y="34" width="1" height="1" fill="#000000" />
<rect x="48" y="34" width="1" height="1" fill="#891E2B" />
<rect x="49" y="34" width="1" height="1" fill="#891E2B" />
<rect x="50" y="34" width="1" height="1" fill="#000000" />
<rect x="51" y="34" width="1" height="1" fill="#000000" opacity="0.556863" />
<rect x="52" y="34" width="1" height="1" fill="#000000" />
<rect x="37" y="35" width="1" height="1" fill="#000000" />
<rect x="38" y="35" width="1" height="1" fill="#C42430" />
<rect x="39" y="35" width="1" height="1" fill="#C42430" />
<rect x="40" y="35" width="1" height="1" fill="#C42430" />
<rect x="41" y="35" width="1" height="1" fill="#C42430" />
<rect x="42" y="35" width="1" height="1" fill="#C42430" />
<rect x="43" y="35" width="1" height="1" fill="#C42430" />
<rect x="44" y="35" width="1" height="1" fill="#C42430" />
<rect x="45" y="35" width="1" height="1" fill="#C42430" />
<rect x="46" y="35" width="1" height="1" fill="#C42430" />
<rect x="47" y="35" width="1" height="1" fill="#000000" />
<rect x="48" y="35" width="1" height="1" fill="#891E2B" />
<rect x="49" y="35" width="1" height="1" fill="#891E2B" />
<rect x="50" y="35" width="1" height="1" fill="#000000" />
<rect x="51" y="35" width="1" height="1" fill="#000000" opacity="0.556863" />
<rect x="52" y="35" width="1" height="1" fill="#000000" />
<rect x="37" y="36" width="1" height="1" fill="#000000" />
<rect x="38" y="36" width="1" height="1" fill="#C42430" />
<rect x="39" y="36" width="1" height="1" fill="#C42430" />
<rect x="40" y="36" width="1" height="1" fill="#C42430" />
<rect x="41" y="36" width="1" height="1" fill="#C42430" />
<rect x="42" y="36" width="1" height="1" fill="#C42430" />
<rect x="43" y="36" width="1" height="1" fill="#C42430" />
<rect x="44" y="36" width="1" height="1" fill="#C42430" />
<rect x="45" y="36" width="1" height="1" fill="#C42430" />
<rect x="46" y="36" width="1" height="1" fill="#C42430" />
<rect x="47" y="36" width="1" height="1" fill="#000000" />
<rect x="48" y="36" width="1" height="1" fill="#891E2B" />
<rect x="49" y="36" width="1" height="1" fill="#891E2B" />
<rect x="50" y="36" width="1" height="1" fill="#000000" />
<rect x="51" y="36" width="1" height="1" fill="#000000" opacity="0.556863" />
<rect x="52" y="36" width="1" height="1" fill="#000000" />
<rect x="37" y="37" width="1" height="1" fill="#000000" />
<rect x="38" y="37" width="1" height="1" fill="#C42430" />
<rect x="39" y="37" width="1" height="1" fill="#C42430" />
<rect x="40" y="37" width="1" height="1" fill="#C42430" />
<rect x="41" y="37" width="1" height="1" fill="#C42430" />
<rect x="42" y="37" width="1" height="1" fill="#C42430" />
<rect x="43" y="37" width="1" height="1" fill="#C42430" />
<rect x="44" y="37" width="1" height="1" fill="#C42430" />
<rect x="45" y="37" width="1" height="1" fill="#C42430" />
<rect x="46" y="37" width="1" height="1" fill="#C42430" />
<rect x="47" y="37" width="1" height="1" fill="#000000" />
<rect x="48" y="37" width="1" height="1" fill="#891E2B" />
<rect x="49" y="37" width="1" height="1" fill="#891E2B" />
<rect x="50" y="37" width="1" height="1" fill="#000000" />
<rect x="51" y="37" width="1" height="1" fill="#000000" opacity="0.556863" />
<rect x="52" y="37" width="1" height="1" fill="#000000" />
<rect x="37" y="38" width="1" height="1" fill="#000000" />
<rect x="38" y="38" width="1" height="1" fill="#C42430" />
<rect x="39" y="38" width="1" height="1" fill="#C42430" />
<rect x="40" y="38" width="1" height="1" fill="#C42430" />
<rect x="41" y="38" width="1" height="1" fill="#C42430" />
<rect x="42" y="38" width="1" height="1" fill="#C42430" />
<rect x="43" y="38" width="1" height="1" fill="#C42430" />
<rect x="44" y="38" width="1" height="1" fill="#C42430" />
<rect x="45" y="38" width="1" height="1" fill="#C42430" />
<rect x="46" y="38" width="1" height="1" fill="#C42430" />
<rect x="47" y="38" width="1" height="1" fill="#000000" />
<rect x="48" y="38" width="1" height="1" fill="#891E2B" />
<rect x="49" y="38" width="1" height="1" fill="#891E2B" />
<rect x="50" y="38" width="1" height="1" fill="#000000" />
<rect x="51" y="38" width="1" height="1" fill="#000000" opacity="0.556863" />
<rect x="52" y="38" width="1" height="1" fill="#000000" />
<rect x="37" y="39" width="1" height="1" fill="#000000" />
<rect x="38" y="39" width="1" height="1" fill="#C42430" />
<rect x="39" y="39" width="1" height="1" fill="#C42430" />
<rect x="40" y="39" width="1" height="1" fill="#C42430" />
<rect x="41" y="39" width="1" height="1" fill="#C42430" />
<rect x="42" y="39" width="1" height="1" fill="#C42430" />
<rect x="43" y="39" width="1" height="1" fill="#C42430" />
<rect x="44" y="39" width="1" height="1" fill="#C42430" />
<rect x="45" y="39" width="1" height="1" fill="#C42430" />
<rect x="46" y="39" width="1" height="1" fill="#C42430" />
<rect x="47" y="39" width="1" height="1" fill="#000000" />
<rect x="48" y="39" width="1" height="1" fill="#891E2B" />
<rect x="49" y="39" width="1" height="1" fill="#891E2B" />
<rect x="50" y="39" width="1" height="1" fill="#000000" />
<rect x="51" y="39" width="1" height="1" fill="#000000" opacity="0.556863" />
<rect x="52" y="39" width="1" height="1" fill="#000000" />
<rect x="37" y="40" width="1" height="1" fill="#000000" />
<rect x="38" y="40" width="1" height="1" fill="#C42430" />
<rect x="39" y="40" width="1" height="1" fill="#C42430" />
<rect x="40" y="40" width="1" height="1" fill="#C42430" />
<rect x="41" y="40" width="1" height="1" fill="#C42430" />
<rect x="42" y="40" width="1" height="1" fill="#C42430" />
<rect x="43" y="40" width="1" height="1" fill="#C42430" />
<rect x="44" y="40" width="1" height="1" fill="#C42430" />
<rect x="45" y="40" width="1" height="1" fill="#C42430" />
<rect x="46" y="40" width="1" height="1" fill="#C42430" />
<rect x="47" y="40" width="1" height="1" fill="#000000" />
<rect x="48" y="40" width="1" height="1" fill="#891E2B" />
<rect x="49" y="40" width="1" height="1" fill="#891E2B" />
<rect x="50" y="40" width="1" height="1" fill="#000000" />
<rect x="51" y="40" width="1" height="1" fill="#000000" opacity="0.556863" />
<rect x="52" y="40" width="1" height="1" fill="#000000" />
<rect x="38" y="41" width="1" height="1" fill="#000000" />
<rect x="39" y="41" width="1" height="1" fill="#C42430" />
<rect x="40" y="41" width="1" height="1" fill="#C42430" />
<rect x="41" y="41" width="1" height="1" fill="#C42430" />
<rect x="42" y="41" width="1" height="1" fill="#C42430" />
<rect x="43" y="41" width="1" height="1" fill="#C42430" />
<rect x="44" y="41" width="1" height="1" fill="#C42430" />
<rect x="45" y="41" width="1" height="1" fill="#C42430" />
<rect x="46" y="41" width="1" height="1" fill="#000000" />
<rect x="47" y="41" width="1" height="1" fill="#891E2B" />
<rect x="48" y="41" width="1" height="1" fill="#891E2B" />
<rect x="49" y="41" width="1" height="1" fill="#000000" />
<rect x="50" y="41" width="1" height="1" fill="#000000" opacity="0.556863" />
<rect x="51" y="41" width="1" height="1" fill="#000000" opacity="0.556863" />
<rect x="52" y="41" width="1" height="1" fill="#000000" />
<rect x="38" y="42" width="1" height="1" fill="#000000" />
<rect x="39" y="42" width="1" height="1" fill="#C42430" />
<rect x="40" y="42" width="1" height="1" fill="#C42430" />
<rect x="41" y="42" width="1" height="1" fill="#C42430" />
<rect x="42" y="42" width="1" height="1" fill="#C42430" />
<rect x="43" y="42" width="1" height="1" fill="#C42430" />
<rect x="44" y="42" width="1" height="1" fill="#C42430" />
<rect x="45" y="42" width="1" height="1" fill="#C42430" />
<rect x="46" y="42" width="1" height="1" fill="#000000" />
<rect x="47" y="42" width="1" height="1" fill="#891E2B" />
<rect x="48" y="42" width="1" height="1" fill="#891E2B" />
<rect x="49" y="42" width="1" height="1" fill="#000000" />
<rect x="50" y="42" width="1" height="1" fill="#000000" opacity="0.556863" />
<rect x="51" y="42" width="1" height="1" fill="#000000" opacity="0.556863" />
<rect x="52" y="42" width="1" height="1" fill="#000000" />
<rect x="38" y="43" width="1" height="1" fill="#000000" />
<rect x="39" y="43" width="1" height="1" fill="#C42430" />
<rect x="40" y="43" width="1" height="1" fill="#C42430" />
<rect x="41" y="43" width="1" height="1" fill="#C42430" />
<rect x="42" y="43" width="1" height="1" fill="#C42430" />
<rect x="43" y="43" width="1" height="1" fill="#C42430" />
<rect x="44" y="43" width="1" height="1" fill="#C42430" />
<rect x="45" y="43" width="1" height="1" fill="#C42430" />
<rect x="46" y="43" width="1" height="1" fill="#000000" />
<rect x="47" y="43" width="1" height="1" fill="#891E2B" />
<rect x="48" y="43" width="1" height="1" fill="#891E2B" />
<rect x="49" y="43" width="1" height="1" fill="#000000" />
<rect x="50" y="43" width="1" height="1" fill="#000000" opacity="0.556863" />
<rect x="51" y="43" width="1" height="1" fill="#000000" opacity="0.556863" />
<rect x="52" y="43" width="1" height="1" fill="#000000" />
<rect x="38" y="44" width="1" height="1" fill="#000000" />
<rect x="39" y="44" width="1" height="1" fill="#C42430" />
<rect x="40" y="44" width="1" height="1" fill="#C42430" />
<rect x="41" y="44" width="1" height="1" fill="#C42430" />
<rect x="42" y="44" width="1" height="1" fill="#C42430" />
<rect x="43" y="44" width="1" height="1" fill="#C42430" />
<rect x="44" y="44" width="1" height="1" fill="#C42430" />
<rect x="45" y="44" width="1" height="1" fill="#C42430" />
<rect x="46" y="44" width="1" height="1" fill="#000000" />
<rect x="47" y="44" width="1" height="1" fill="#891E2B" />
<rect x="48" y="44" width="1" height="1" fill="#891E2B" />
<rect x="49" y="44" width="1" height="1" fill="#000000" />
<rect x="50" y="44" width="1" height="1" fill="#000000" opacity="0.556863" />
<rect x="51" y="44" width="1" height="1" fill="#000000" />
<rect x="38" y="45" width="1" height="1" fill="#000000" />
<rect x="39" y="45" width="1" height="1" fill="#C42430" />
<rect x="40" y="45" width="1" height="1" fill="#C42430" />
<rect x="41" y="45" width="1" height="1" fill="#C42430" />
<rect x="42" y="45" width="1" height="1" fill="#C42430" />
<rect x="43" y="45" width="1" height="1" fill="#C42430" />
<rect x="44" y="45" width="1" height="1" fill="#C42430" />
<rect x="45" y="45" width="1" height="1" fill="#C42430" />
<rect x="46" y="45" width="1" height="1" fill="#000000" />
<rect x="47" y="45" width="1" height="1" fill="#891E2B" />
<rect x="48" y="45" width="1" height="1" fill="#891E2B" />
<rect x="49" y="45" width="1" height="1" fill="#000000" />
<rect x="50" y="45" width="1" height="1" fill="#000000" opacity="0.556863" />
<rect x="51" y="45" width="1" height="1" fill="#000000" />
<rect x="38" y="46" width="1" height="1" fill="#000000" />
<rect x="39" y="46" width="1" height="1" fill="#C42430" />
<rect x="40" y="46" width="1" height="1" fill="#C42430" />
<rect x="41" y="46" width="1" height="1" fill="#C42430" />
<rect x="42" y="46" width="1" height="1" fill="#C42430" />
<rect x="43" y="46" width="1" height="1" fill="#C42430" />
<rect x="44" y="46" width="1" height="1" fill="#C42430" />
<rect x="45" y="46" width="1" height="1" fill="#C42430" />
<rect x="46" y="46" width="1" height="1" fill="#000000" />
<rect x="47" y="46" width="1" height="1" fill="#891E2B" />
<rect x="48" y="46" width="1" height="1" fill="#891E2B" />
<rect x="49" y="46" width="1" height="1" fill="#000000" />
<rect x="50" y="46" width="1" height="1" fill="#000000" opacity="0.556863" />
<rect x="51" y="46" width="1" height="1" fill="#000000" />
<rect x="39" y="47" width="1" height="1" fill="#000000" />
<rect x="40" y="47" width="1" height="1" fill="#C42430" />
<rect x="41" y="47" width="1" height="1" fill="#C42430" />
<rect x="42" y="47" width="1" height="1" fill="#C42430" />
<rect x="43" y="47" width="1" height="1" fill="#C42430" />
<rect x="44" y="47" width="1" height="1" fill="#C42430" />
<rect x="45" y="47" width="1" height="1" fill="#000000" />
<rect x="46" y="47" width="1" height="1" fill="#891E2B" />
<rect x="47" y="47" width="1" height="1" fill="#891E2B" />
<rect x="48" y="47" width="1" height="1" fill="#000000" />
<rect x="49" y="47" width="1" height="1" fill="#000000" opacity="0.556863" />
<rect x="50" y="47" width="1" height="1" fill="#000000" opacity="0.556863" />
<rect x="51" y="47" width="1" height="1" fill="#000000" />
<rect x="39" y="48" width="1" height="1" fill="#000000" />
<rect x="40" y="48" width="1" height="1" fill="#C42430" />
<rect x="41" y="48" width="1" height="1" fill="#C42430" />
<rect x="42" y="48" width="1" height="1" fill="#C42430" />
<rect x="43" y="48" width="1" height="1" fill="#C42430" />
<rect x="44" y="48" width="1" height="1" fill="#C42430" />
<rect x="45" y="48" width="1" height="1" fill="#000000" />
<rect x="46" y="48" width="1" height="1" fill="#891E2B" />
<rect x="47" y="48" width="1" height="1" fill="#891E2B" />
<rect x="48" y="48" width="1" height="1" fill="#000000" />
<rect x="49" y="48" width="1" height="1" fill="#000000" opacity="0.556863" />
<rect x="50" y="48" width="1" height="1" fill="#000000" opacity="0.556863" />
<rect x="51" y="48" width="1" height="1" fill="#000000" />
<rect x="39" y="49" width="1" height="1" fill="#000000" />
<rect x="40" y="49" width="1" height="1" fill="#C42430" />
<rect x="41" y="49" width="1" height="1" fill="#C42430" />
<rect x="42" y="49" width="1" height="1" fill="#C42430" />
<rect x="43" y="49" width="1" height="1" fill="#C42430" />
<rect x="44" y="49" width="1" height="1" fill="#C42430" />
<rect x="45" y="49" width="1" height="1" fill="#000000" />
<rect x="46" y="49" width="1" height="1" fill="#891E2B" />
<rect x="47" y="49" width="1" height="1" fill="#891E2B" />
<rect x="48" y="49" width="1" height="1" fill="#000000" />
<rect x="49" y="49" width="1" height="1" fill="#000000" opacity="0.556863" />
<rect x="50" y="49" width="1" height="1" fill="#000000" opacity="0.556863" />
<rect x="51" y="49" width="1" height="1" fill="#000000" />
<rect x="39" y="50" width="1" height="1" fill="#000000" />
<rect x="40" y="50" width="1" height="1" fill="#C42430" />
<rect x="41" y="50" width="1" height="1" fill="#C42430" />
<rect x="42" y="50" width="1" height="1" fill="#C42430" />
<rect x="43" y="50" width="1" height="1" fill="#C42430" />
<rect x="44" y="50" width="1" height="1" fill="#C42430" />
<rect x="45" y="50" width="1" height="1" fill="#000000" />
<rect x="46" y="50" width="1" height="1" fill="#891E2B" />
<rect x="47" y="50" width="1" height="1" fill="#891E2B" />
<rect x="48" y="50" width="1" height="1" fill="#000000" />
<rect x="49" y="50" width="1" height="1" fill="#000000" opacity="0.556863" />
<rect x="50" y="50" width="1" height="1" fill="#000000" />
<rect x="40" y="51" width="1" height="1" fill="#000000" />
<rect x="41" y="51" width="1" height="1" fill="#C42430" />
<rect x="42" y="51" width="1" height="1" fill="#C42430" />
<rect x="43" y="51" width="1" height="1" fill="#C42430" />
<rect x="44" y="51" width="1" height="1" fill="#000000" />
<rect x="45" y="51" width="1" height="1" fill="#891E2B" />
<rect x="46" y="51" width="1" height="1" fill="#891E2B" />
<rect x="47" y="51" width="1" height="1" fill="#000000" />
<rect x="48" y="51" width="1" height="1" fill="#000000" opacity="0.556863" />
<rect x="49" y="51" width="1" height="1" fill="#000000" opacity="0.556863" />
<rect x="50" y="51" width="1" height="1" fill="#000000" />
<rect x="40" y="52" width="1" height="1" fill="#000000" />
<rect x="41" y="52" width="1" height="1" fill="#C42430" />
<rect x="42" y="52" width="1" height="1" fill="#C42430" />
<rect x="43" y="52" width="1" height="1" fill="#C42430" />
<rect x="44" y="52" width="1" height="1" fill="#000000" />
<rect x="45" y="52" width="1" height="1" fill="#891E2B" />
<rect x="46" y="52" width="1" height="1" fill="#891E2B" />
<rect x="47" y="52" width="1" height="1" fill="#000000" />
<rect x="48" y="52" width="1" height="1" fill="#000000" opacity="0.556863" />
<rect x="49" y="52" width="1" height="1" fill="#000000" opacity="0.556863" />
<rect x="50" y="52" width="1" height="1" fill="#000000" />
<rect x="41" y="53" width="1" height="1" fill="#000000" />
<rect x="42" y="53" width="1" height="1" fill="#C42430" />
<rect x="43" y="53" width="1" height="1" fill="#000000" />
<rect x="44" y="53" width="1" height="1" fill="#891E2B" />
<rect x="45" y="53" width="1" height="1" fill="#891E2B" />
<rect x="46" y="53" width="1" height="1" fill="#000000" />
<rect x="47" y="53" width="1" height="1" fill="#000000" opacity="0.556863" />
<rect x="48" y="53" width="1" height="1" fill="#000000" opacity="0.556863" />
<rect x="49" y="53" width="1" height="1" fill="#000000" opacity="0.556863" />
<rect x="50" y="53" width="1" height="1" fill="#000000" />
<rect x="41" y="54" width="1" height="1" fill="#000000" />
<rect x="42" y="54" width="1" height="1" fill="#000000" />
<rect x="43" y="54" width="1" height="1" fill="#891E2B" />
<rect x="44" y="54" width="1" height="1" fill="#891E2B" />
<rect x="45" y="54" width="1" height="1" fill="#891E2B" />
<rect x="46" y="54" width="1" height="1" fill="#000000" />
<rect x="47" y="54" width="1" height="1" fill="#000000" opacity="0.556863" />
<rect x="48" y="54" width="1" height="1" fill="#000000" opacity="0.556863" />
<rect x="49" y="54" width="1" height="1" fill="#000000" />
<rect x="42" y="55" width="1" height="1" fill="#000000" />
<rect x="43" y="55" width="1" height="1" fill="#000000" />
<rect x="44" y="55" width="1" height="1" fill="#000000" />
<rect x="45" y="55" width="1" height="1" fill="#000000" />
<rect x="46" y="55" width="1" height="1" fill="#000000" opacity="0.556863" />
<rect x="47" y="55" width="1" height="1" fill="#000000" opacity="0.556863" />
<rect x="48" y="55" width="1" height="1" fill="#000000" opacity="0.556863" />
<rect x="49" y="55" width="1" height="1" fill="#000000" />
<rect x="42" y="56" width="1" height="1" fill="#000000" />
<rect x="43" y="56" width="1" height="1" fill="#000000" opacity="0.556863" />
<rect x="44" y="56" width="1" height="1" fill="#000000" opacity="0.556863" />
<rect x="45" y="56" width="1" height="1" fill="#000000" opacity="0.556863" />
<rect x="46" y="56" width="1" height="1" fill="#000000" opacity="0.556863" />
<rect x="47" y="56" width="1" height="1" fill="#000000" opacity="0.556863" />
<rect x="48" y="56" width="1" height="1" fill="#000000" />
<rect x="43" y="57" width="1" height="1" fill="#000000" />
<rect x="44" y="57" width="1" height="1" fill="#000000" />
<rect x="45" y="57" width="1" height="1" fill="#000000" opacity="0.556863" />
<rect x="46" y="57" width="1" height="1" fill="#000000" opacity="0.556863" />
<rect x="47" y="57" width="1" height="1" fill="#000000" opacity="0.556863" />
<rect x="48" y="57" width="1" height="1" fill="#000000" />
<rect x="45" y="58" width="1" height="1" fill="#000000" />
<rect x="46" y="58" width="1" height="1" fill="#000000" />
<rect x="47" y="58" width="1" height="1" fill="#000000" />
</svg>